<?xml version="1.0" encoding="UTF-8"?><svg id="a" xmlns="http://www.w3.org/2000/svg" viewBox="0 0 578 578"><defs><style>.b{stroke-width:11px;}.b,.c,.d,.e,.f{stroke:#1c2b64;stroke-miterlimit:10;}.b,.c,.e{fill:none;}.c{stroke-width:15px;}.d{fill:#1c2b64;}.e{stroke-width:2px;}.f{fill:#ded5ea;stroke-width:18px;}</style></defs><circle class="f" cx="289" cy="289" r="280"/><circle class="e" cx="288.78" cy="288.94" r="110"/><circle class="b" cx="289.23" cy="288.94" r="108.5" transform="translate(-119.6 289.15) rotate(-45)"/><circle class="c" cx="289" cy="289" r="143.5"/><path class="d" d="M275.64,289.19h-3.11c1.96.04,3.11,0,3.11,0Z"/><path class="d" d="M272.68,289.19c-7.47.15-26.96,1.5-42,11-19,12-71.68,45.23-108.84,10.12-9.78,8.64-15.6,18.08-19.16,25.88,3.53,4.84,8.72,9.31,18,11-22,4-24,25-24,25,0,0-1.6-21-23.6-25h-.4c9.16-1.67,14.84-6.24,18.35-11.01-7.87-15.64-26.43-37.76-69.83-46.99h53.48s18,6,23,23c5-17,23-23,23-23h-.14s-18-6-23-23c-5,17-23,23-23,23H21.06c43.39-9.23,61.96-31.35,69.83-46.99-3.51-4.77-9.18-9.34-18.35-11.01h.4c22-4,23.6-25,23.6-25,0,0,2,21,24,25-9.28,1.69-14.47,6.16-18,11,3.56,7.81,9.38,17.24,19.16,25.88,37.16-35.12,89.84-1.88,108.84,10.12,15.05,9.5,34.54,10.85,42,11"/><path class="d" d="M275.78,289.19h-3.11c1.96-.04,3.11,0,3.11,0Z"/><path class="d" d="M302.37,288.69h3.11c-1.96-.04-3.11,0-3.11,0Z"/><path class="d" d="M305.33,288.69c7.47-.15,26.96-1.5,42-11,19-12,71.68-45.23,108.84-10.12,9.78-8.64,15.6-18.08,19.16-25.88-3.53-4.84-8.72-9.31-18-11,22-4,24-25,24-25,0,0,1.6,21,23.6,25h.4c-9.16,1.67-14.84,6.24-18.35,11.01,7.87,15.64,26.43,37.76,69.83,46.99h-53.48s-18-6-23-23c-5,17-23,23-23,23h.14s18,6,23,23c5-17,23-23,23-23h53.48c-43.39,9.23-61.96,31.35-69.83,46.99,3.51,4.77,9.18,9.34,18.35,11.01h-.4c-22,4-23.6,25-23.6,25,0,0-2-21-24-25,9.28-1.69,14.47-6.16,18-11-3.56-7.81-9.38-17.24-19.16-25.88-37.16,35.12-89.84,1.88-108.84-10.12-15.05-9.5-34.54-10.85-42-11"/><path class="d" d="M302.23,288.69h3.11c-1.96.04-3.11,0-3.11,0Z"/><path class="d" d="M289,275.63v-3.11c-.04,1.96,0,3.11,0,3.11Z"/><path class="d" d="M289.01,272.67c-.15-7.47-1.5-26.96-11-42-12-19-45.23-71.68-10.12-108.84-8.64-9.78-18.08-15.6-25.88-19.16-4.84,3.53-9.31,8.72-11,18-4-22-25-24-25-24,0,0,21-1.6,25-23.6v-.4c1.67,9.16,6.24,14.84,11.01,18.35,15.64-7.87,37.76-26.43,46.99-69.83v53.48s-6,18-23,23c17,5,23,23,23,23v-.14s6-18,23-23c-17-5-23-23-23-23V21.05c9.23,43.39,31.35,61.96,46.99,69.83,4.77-3.51,9.34-9.18,11.01-18.35v.4c4,22,25,23.6,25,23.6,0,0-21,2-25,24-1.69-9.28-6.16-14.47-11-18-7.81,3.56-17.24,9.38-25.88,19.16,35.12,37.16,1.88,89.84-10.12,108.84-9.5,15.05-10.85,34.54-11,42"/><path class="d" d="M289,275.77v-3.11c.04,1.96,0,3.11,0,3.11Z"/><path class="d" d="M289,302.37v3.11c.04-1.96,0-3.11,0-3.11Z"/><path class="d" d="M289,305.33c.15,7.47,1.5,26.96,11,42,12,19,45.23,71.68,10.12,108.84,8.64,9.78,18.08,15.6,25.88,19.16,4.84-3.53,9.31-8.72,11-18,4,22,25,24,25,24,0,0-21,1.6-25,23.6v.4c-1.67-9.16-6.24-14.84-11.01-18.35-15.64,7.87-37.76,26.43-46.99,69.83v-53.48s6-18,23-23c-17-5-23-23-23-23v.14s-6,18-23,23c17,5,23,23,23,23v53.48c-9.23-43.39-31.35-61.96-46.99-69.83-4.77,3.51-9.34,9.18-11.01,18.35v-.4c-4-22-25-23.6-25-23.6,0,0,21-2,25-24,1.69,9.28,6.16,14.47,11,18,7.81-3.56,17.24-9.38,25.88-19.16-35.12-37.16-1.88-89.84,10.12-108.84,9.5-15.05,10.85-34.54,11-42"/><path class="d" d="M289,302.22v3.11c-.04-1.96,0-3.11,0-3.11Z"/><path class="d" d="M398.6,188.8s34.84-36.04,52.86-32.43c0,0-4.32-22.75,10.1-39.57h0c-16.82,14.42-39.64,9.61-39.64,9.61,3.6,18.02-32.43,52.86-32.43,52.86"/><path class="d" d="M179.41,389.33s-34.84,36.04-52.86,32.43c0,0,4.32,22.75-10.1,39.57h0c16.82-14.42,39.64-9.61,39.64-9.61-3.6-18.02,32.43-52.86,32.43-52.86"/><path class="d" d="M389.24,398.7s36.04,34.84,32.43,52.86c0,0,22.75-4.32,39.57,10.1h0c-14.42-16.82-9.61-39.64-9.61-39.64-18.02,3.6-52.86-32.43-52.86-32.43"/><path class="d" d="M188.71,179.51s-36.04-34.84-32.43-52.86c0,0-22.75,4.32-39.57-10.1h0c14.42,16.82,9.61,39.64,9.61,39.64,18.02-3.6,52.86,32.43,52.86,32.43"/></svg>