<?xml version="1.0" encoding="UTF-8"?>
<!DOCTYPE svg PUBLIC "-//W3C//DTD SVG 1.1//EN" "http://www.w3.org/Graphics/SVG/1.1/DTD/svg11.dtd">
<svg xmlns="http://www.w3.org/2000/svg" version="1.1" width="768px" height="768px" style="shape-rendering:geometricPrecision; text-rendering:geometricPrecision; image-rendering:optimizeQuality; fill-rule:evenodd; clip-rule:evenodd" xmlns:xlink="http://www.w3.org/1999/xlink">
<g><path style="opacity:0.916" fill="current" d="M 358.5,109.5 C 355.956,109.896 353.789,109.229 352,107.5C 350.915,102.563 350.248,97.5634 350,92.5C 346.387,88.8874 342.721,85.2208 339,81.5C 335.811,76.9419 334.478,71.9419 335,66.5C 336.29,64.208 337.957,62.208 340,60.5C 341.187,58.9556 341.52,57.2889 341,55.5C 340,54.1667 339,54.1667 338,55.5C 337.187,57.4357 336.687,59.4357 336.5,61.5C 333.27,61.439 331.437,59.7723 331,56.5C 330.911,40.1194 337.244,37.1194 350,47.5C 351.368,50.7383 351.701,54.0717 351,57.5C 348.765,61.4725 346.931,65.6391 345.5,70C 345.909,72.3207 346.743,74.4874 348,76.5C 348.667,77.8333 349.333,77.8333 350,76.5C 353.283,67.1377 354.949,57.471 355,47.5C 359.404,34.527 366.904,23.6937 377.5,15C 379.134,14.5065 380.801,14.3398 382.5,14.5C 382.477,16.9267 381.977,19.26 381,21.5C 376.116,31.2668 371.783,41.2668 368,51.5C 366.448,61.4574 365.781,71.4574 366,81.5C 369.001,83.8461 370.001,86.8461 369,90.5C 366.961,92.8745 364.628,94.8745 362,96.5C 361.255,101.002 360.088,105.335 358.5,109.5 Z"/></g>
<g><path style="opacity:0.908" fill="#dae3eb" d="M 426.5,109.5 C 424.696,104.958 423.196,100.292 422,95.5C 416.602,93.7058 414.602,90.0392 416,84.5C 418.016,83.1613 419.183,81.3279 419.5,79C 418.933,68.7599 417.766,58.5932 416,48.5C 410.855,37.2201 406.022,25.8867 401.5,14.5C 404.794,14.259 407.794,15.0924 410.5,17C 419.661,26.15 426.328,36.8167 430.5,49C 430.228,56.7722 431.062,64.6055 433,72.5C 433.748,74.3325 434.748,75.9991 436,77.5C 437.739,75.2902 438.906,72.7902 439.5,70C 438.316,65.8007 436.483,61.9673 434,58.5C 432.606,46.8931 437.773,41.3931 449.5,42C 453.995,47.1403 455.161,52.9737 453,59.5C 451.867,61.2112 450.367,61.7112 448.5,61C 448.05,58.4994 447.05,56.3328 445.5,54.5C 444.28,54.8869 443.613,55.7202 443.5,57C 445.261,60.4306 447.428,63.5972 450,66.5C 450.01,77.138 445.343,85.138 436,90.5C 435.142,96.6025 433.808,102.602 432,108.5C 430.301,109.406 428.467,109.739 426.5,109.5 Z"/></g>
<g><path style="opacity:0.845" fill="current" d="M 391.5,30.5 C 401.309,30.1383 403.976,34.3049 399.5,43C 393.611,43.4724 390.611,40.639 390.5,34.5C 390.623,33.0755 390.957,31.7421 391.5,30.5 Z"/></g>
<g><path style="opacity:0.801" fill="current" d="M 388.5,52.5 C 387.833,52.5 387.5,52.8333 387.5,53.5C 385.283,54.3686 382.95,54.702 380.5,54.5C 379.14,47.0201 381.974,44.3534 389,46.5C 389.49,48.5454 389.323,50.5454 388.5,52.5 Z"/></g>
<g><path style="opacity:0.883" fill="current" d="M 388.5,52.5 C 390.199,52.3398 391.866,52.5065 393.5,53C 399.402,62.8878 400.902,73.3878 398,84.5C 394.274,86.3538 391.608,85.3538 390,81.5C 389.578,79.6447 389.078,77.8114 388.5,76C 390.254,69.3697 389.587,63.0364 386.5,57C 386.989,55.8615 387.322,54.6948 387.5,53.5C 388.167,53.5 388.5,53.1667 388.5,52.5 Z"/></g>
<g><path style="opacity:0.736" fill="current" d="M 403.5,59.5 C 408.068,59.0826 409.568,61.0826 408,65.5C 405.602,68.0544 403.269,68.0544 401,65.5C 400.458,62.9175 401.292,60.9175 403.5,59.5 Z"/></g>
<g><path style="opacity:0.93" fill="current" d="M 426.5,109.5 C 427.519,111.101 429.019,112.101 431,112.5C 435.99,109.09 441.49,106.923 447.5,106C 438.642,101.138 437.642,95.1381 444.5,88C 450.256,85.6514 456.256,84.4847 462.5,84.5C 462.5,85.5 462.5,86.5 462.5,87.5C 456.891,87.4022 451.558,88.5688 446.5,91C 444.789,92.1332 444.289,93.6332 445,95.5C 448.743,99.2594 453.243,100.426 458.5,99C 464.868,97.0412 471.201,95.2078 477.5,93.5C 487.011,94.1788 492.011,99.3455 492.5,109C 491.623,122.374 484.623,130.207 471.5,132.5C 472.831,135.834 474.665,138.834 477,141.5C 482.815,146.738 488.815,151.738 495,156.5C 495.495,158.473 495.662,160.473 495.5,162.5C 497.199,162.34 498.866,162.506 500.5,163C 503.846,165.012 506.512,167.679 508.5,171C 504.907,177.513 500.574,183.513 495.5,189C 493.866,189.494 492.199,189.66 490.5,189.5C 491.568,185.557 493.402,181.89 496,178.5C 497.301,176.598 497.968,174.598 498,172.5C 497.667,172.167 497.333,171.833 497,171.5C 493.365,177.965 489.532,184.298 485.5,190.5C 488.188,193.022 491.021,195.356 494,197.5C 496.448,193.385 499.281,189.552 502.5,186C 504.879,185.386 507.212,185.053 509.5,185C 510.554,186.388 510.72,187.888 510,189.5C 506.995,193.506 504.495,197.84 502.5,202.5C 505.761,208.135 508.761,208.301 511.5,203C 509.375,201.263 508.542,199.096 509,196.5C 511.543,193.251 513.709,189.751 515.5,186C 514.497,183.025 512.831,180.025 510.5,177C 511.029,175.441 511.696,173.941 512.5,172.5C 513.365,171.417 514.365,171.251 515.5,172C 519.774,173.116 522.774,175.616 524.5,179.5C 522.023,185.12 519.023,190.453 515.5,195.5C 517.451,198.786 519.785,201.786 522.5,204.5C 516.744,211.736 517.411,212.736 524.5,207.5C 525.814,208.313 526.981,209.313 528,210.5C 527.592,213.161 526.759,215.827 525.5,218.5C 526.774,221.609 528.94,223.942 532,225.5C 538.766,217.154 546.1,209.487 554,202.5C 558.088,205.133 561.921,208.133 565.5,211.5C 566.338,214.416 566.338,217.082 565.5,219.5C 567.191,217.744 569.191,217.244 571.5,218C 573.647,221.115 576.147,223.948 579,226.5C 578.65,230.584 576.817,234.084 573.5,237C 577.336,235.749 581.002,233.916 584.5,231.5C 586.056,232.547 587.723,233.214 589.5,233.5C 590.942,238.322 592.442,242.989 594,247.5C 586.206,254.796 577.706,261.13 568.5,266.5C 568.808,267.308 569.308,267.975 570,268.5C 578.769,263.394 587.269,257.894 595.5,252C 599.503,251.165 602.836,252.331 605.5,255.5C 610.918,264.001 616.085,272.668 621,281.5C 633.526,311.264 639.526,342.264 639,374.5C 637.998,398.187 634.665,421.52 629,444.5C 617.043,482.741 600.043,518.408 578,551.5C 575.833,553.667 573.667,555.833 571.5,558C 564.29,561.634 556.957,564.967 549.5,568C 540.833,574.667 532.167,581.333 523.5,588C 521.316,590.016 519.316,592.183 517.5,594.5C 508.627,582.964 508.461,571.298 517,559.5C 527.115,549.294 536.782,538.627 546,527.5C 549.107,522.944 551.94,518.277 554.5,513.5C 548.482,520.026 542.982,527.026 538,534.5C 526.384,544.093 516.384,555.093 508,567.5C 506.543,571.741 506.209,576.074 507,580.5C 509.521,585.561 511.354,590.894 512.5,596.5C 511.949,600.489 510.616,604.156 508.5,607.5C 511.325,617.18 507.658,621.013 497.5,619C 493.89,620.944 490.557,623.277 487.5,626C 480.435,627.762 473.769,630.428 467.5,634C 461.647,640.578 459.813,648.078 462,656.5C 463.77,657.276 465.603,657.11 467.5,656C 473.145,650.023 479.145,644.357 485.5,639C 487.5,638 489.5,637 491.5,636C 487.381,631.927 487.715,628.26 492.5,625C 498.676,623.812 500.842,626.312 499,632.5C 498.097,633.701 496.931,634.535 495.5,635C 501.167,635.333 506.833,635.667 512.5,636C 518.51,638.334 523.843,641.667 528.5,646C 539.079,646.367 549.079,644.034 558.5,639C 577.665,628.149 595.998,616.149 613.5,603C 616.255,601.047 619.255,599.88 622.5,599.5C 622.719,600.675 622.386,601.675 621.5,602.5C 601.665,614.506 584.498,629.506 570,647.5C 570.21,671.963 558.377,681.796 534.5,677C 525.971,671.568 516.971,666.901 507.5,663C 500.289,659.365 493.289,659.699 486.5,664C 478.545,672.152 468.878,675.652 457.5,674.5C 462.317,676.497 466.817,679.164 471,682.5C 473.967,688.774 472.467,693.608 466.5,697C 457.872,701.075 448.872,704.075 439.5,706C 446.034,711.419 446.034,716.753 439.5,722C 436.595,723.286 433.595,724.286 430.5,725C 420.506,725.5 410.506,725.666 400.5,725.5C 398.15,736.233 395.483,746.9 392.5,757.5C 389.522,746.922 386.856,736.256 384.5,725.5C 374.494,725.666 364.494,725.5 354.5,725C 350.735,723.951 347.068,722.618 343.5,721C 339.312,715.403 339.979,710.403 345.5,706C 336.128,704.075 327.128,701.075 318.5,697C 312.533,693.608 311.033,688.774 314,682.5C 318.183,679.164 322.683,676.497 327.5,674.5C 316.122,675.652 306.455,672.152 298.5,664C 295.117,661.928 291.45,660.761 287.5,660.5C 280.799,661.567 274.466,663.734 268.5,667C 262.468,670.348 256.468,673.681 250.5,677C 226.623,681.796 214.79,671.963 215,647.5C 200.477,629.477 183.31,614.477 163.5,602.5C 162.614,601.675 162.281,600.675 162.5,599.5C 165.745,599.88 168.745,601.047 171.5,603C 188.945,616.232 207.279,628.232 226.5,639C 235.921,644.034 245.921,646.367 256.5,646C 261.193,641.653 266.527,638.319 272.5,636C 278.167,635.667 283.833,635.333 289.5,635C 285.787,633.309 284.621,630.475 286,626.5C 291.462,623.143 294.962,624.643 296.5,631C 296.357,633.151 295.357,634.818 293.5,636C 295.5,637 297.5,638 299.5,639C 305.508,644.71 311.508,650.377 317.5,656C 320.474,658.45 322.641,657.95 324,654.5C 325.341,643.008 320.841,634.841 310.5,630C 306.789,629.156 303.123,628.156 299.5,627C 295.5,624.333 291.5,621.667 287.5,619C 283.778,618.762 280.111,618.262 276.5,617.5C 275.29,614.341 275.29,611.174 276.5,608C 274.747,604.661 273.414,601.161 272.5,597.5C 274.233,591.802 276.066,586.136 278,580.5C 278.667,577.167 278.667,573.833 278,570.5C 269.484,556.138 258.651,543.805 245.5,533.5C 251.676,543.186 259.176,551.852 268,559.5C 274.174,568.565 275.174,578.231 271,588.5C 270.484,591.251 269.317,593.584 267.5,595.5C 266.07,592.567 264.07,590.067 261.5,588C 255.138,583.817 249.138,579.15 243.5,574C 232.512,565.838 221.179,558.172 209.5,551C 195.869,535.681 185.036,518.514 177,499.5C 167.419,478.09 159.419,456.09 153,433.5C 147.614,406.084 145.281,378.417 146,350.5C 149.169,322.82 156.835,296.487 169,271.5C 172.749,266.338 176.249,261.004 179.5,255.5C 182.164,252.331 185.497,251.165 189.5,252C 197.731,257.894 206.231,263.394 215,268.5C 215.692,267.975 216.192,267.308 216.5,266.5C 207.294,261.13 198.794,254.796 191,247.5C 190.333,246.5 190.333,245.5 191,244.5C 192.941,240.952 194.607,237.286 196,233.5C 197.913,231.813 200.08,231.313 202.5,232C 209.68,237.091 216.68,242.424 223.5,248C 227.59,250.144 230.59,248.977 232.5,244.5C 230.438,243.239 228.772,243.739 227.5,246C 224.352,246.06 222.019,244.56 220.5,241.5C 222.822,237.345 225.988,234.012 230,231.5C 233.302,233.965 236.468,236.632 239.5,239.5C 239.833,239.167 240.167,238.833 240.5,238.5C 239.185,236.684 237.685,235.017 236,233.5C 234.386,229.691 235.719,227.025 240,225.5C 241.963,226.625 243.796,227.959 245.5,229.5C 246.521,228.998 246.688,228.332 246,227.5C 241.072,223.284 236.239,218.95 231.5,214.5C 230.417,215.365 230.251,216.365 231,217.5C 234.15,219.128 234.983,221.462 233.5,224.5C 229.543,227.122 225.876,230.122 222.5,233.5C 214.137,226.714 213.47,227.547 220.5,236C 218.572,238.86 216.239,239.193 213.5,237C 211.317,234.65 208.984,232.483 206.5,230.5C 205.386,229.277 205.219,227.944 206,226.5C 208.382,223.573 210.882,220.739 213.5,218C 216.51,217.752 219.176,218.418 221.5,220C 218.725,217.62 218.058,214.787 219.5,211.5C 223.04,208.144 226.873,205.144 231,202.5C 238.86,208.693 245.693,215.86 251.5,224C 255.088,223.7 258.088,222.033 260.5,219C 258.05,216.611 256.883,213.778 257,210.5C 258.062,209.101 259.395,208.101 261,207.5C 262.331,208.996 263.831,210.329 265.5,211.5C 265.833,211.167 266.167,210.833 266.5,210.5C 265.721,208.227 264.388,206.394 262.5,205C 265.442,203.063 268.109,200.729 270.5,198C 266.966,192.778 263.8,187.278 261,181.5C 260.333,180.167 260.333,178.833 261,177.5C 264.239,173.951 268.073,172.285 272.5,172.5C 273.304,173.941 273.971,175.441 274.5,177C 272.767,179.076 271.434,181.409 270.5,184C 272.648,188.789 274.981,193.456 277.5,198C 276.277,199.72 275.277,201.553 274.5,203.5C 274.703,205.208 275.536,206.541 277,207.5C 278.925,206.12 280.759,204.62 282.5,203C 280.793,199.752 278.96,196.585 277,193.5C 276.503,190.854 276.336,188.187 276.5,185.5C 279.187,185.664 281.854,185.497 284.5,185C 280.466,180.436 277.966,175.269 277,169.5C 280.399,165.56 284.565,163.226 289.5,162.5C 288.705,158.406 290.038,155.239 293.5,153C 285.529,156.494 277.862,160.827 270.5,166C 263.655,169.512 256.655,172.845 249.5,176C 245.27,177.29 240.936,177.79 236.5,177.5C 236.055,174.635 236.722,172.135 238.5,170C 237.092,169.685 235.759,170.018 234.5,171C 227.667,177.167 221.167,183.667 215,190.5C 213.725,192.717 212.725,195.051 212,197.5C 212.05,204.301 210.383,210.634 207,216.5C 183.608,240.256 166.275,267.922 155,299.5C 152.127,312.201 149.127,324.868 146,337.5C 144.059,341.048 142.393,344.714 141,348.5C 135.432,352.724 131.432,358.058 129,364.5C 127.873,373.768 127.706,383.101 128.5,392.5C 128.51,399.873 128.01,407.206 127,414.5C 125.116,416.576 122.949,416.91 120.5,415.5C 118.993,410.619 117.993,405.619 117.5,400.5C 118.602,382.469 120.102,364.469 122,346.5C 122.438,343.624 123.438,340.957 125,338.5C 130.329,332.516 134.663,325.849 138,318.5C 141.947,306.162 145.78,293.828 149.5,281.5C 146.352,286.74 143.852,292.406 142,298.5C 134.363,303.882 131.029,301.882 132,292.5C 139.039,269.584 149.873,248.751 164.5,230C 167.393,228.851 170.393,228.351 173.5,228.5C 173.649,231.607 173.149,234.607 172,237.5C 168.245,244.009 164.745,250.676 161.5,257.5C 171.221,244.538 180.388,230.538 189,215.5C 192.372,208.91 194.372,201.91 195,194.5C 201.462,185.704 208.962,177.871 217.5,171C 227.617,162.886 238.284,155.552 249.5,149C 251.754,147.85 254.087,147.516 256.5,148C 257.951,153.119 256.285,157.119 251.5,160C 262.544,155.889 272.71,150.055 282,142.5C 283.503,133.626 288.336,130.793 296.5,134C 297.126,134.75 297.626,135.584 298,136.5C 298.792,141.422 298.459,146.088 297,150.5C 300.167,148 303.333,145.5 306.5,143C 309.654,139.848 311.987,136.181 313.5,132C 296.805,128.456 290.305,118.29 294,101.5C 298.159,94.3301 304.326,91.8301 312.5,94C 317.86,97.2305 323.693,99.0638 330,99.5C 334.612,99.6124 338.112,97.779 340.5,94C 340.241,92.7387 339.574,91.7387 338.5,91C 333.129,88.4073 327.462,87.2406 321.5,87.5C 321.5,86.5 321.5,85.5 321.5,84.5C 328.087,84.3754 334.42,85.542 340.5,88C 346.452,95.0322 345.452,101.032 337.5,106C 343.51,106.923 349.01,109.09 354,112.5C 355.981,112.101 357.481,111.101 358.5,109.5C 363.543,106.95 367.043,102.95 369,97.5C 372.342,87.7803 373.842,77.7803 373.5,67.5C 374.5,67.5 375.5,67.5 376.5,67.5C 381.07,94.9701 372.903,117.637 352,135.5C 344.194,145.266 344.694,154.433 353.5,163C 361.091,163.737 364.257,160.237 363,152.5C 362.167,151.667 361.333,150.833 360.5,150C 357.46,149.68 354.46,149.68 351.5,150C 350.481,146.617 351.815,144.283 355.5,143C 370.411,141.581 376.911,148.414 375,163.5C 370.424,172.711 362.924,177.211 352.5,177C 353.833,177.167 355.167,177.333 356.5,177.5C 368.452,176.046 380.452,175.38 392.5,175.5C 405.877,175.607 419.21,176.107 432.5,177C 422.564,177.117 415.064,172.951 410,164.5C 407.532,148.974 414.032,141.808 429.5,143C 433.185,144.283 434.519,146.617 433.5,150C 430.54,149.68 427.54,149.68 424.5,150C 420.588,154.505 420.921,158.838 425.5,163C 429.582,164.293 432.749,163.126 435,159.5C 438.109,155.315 439.109,150.648 438,145.5C 434.247,136.739 428.58,129.406 421,123.5C 417.748,118.666 414.748,113.666 412,108.5C 410.202,103.322 409.202,97.9885 409,92.5C 408.5,84.1733 408.334,75.84 408.5,67.5C 409.5,67.5 410.5,67.5 411.5,67.5C 410.867,79.7063 413.034,91.373 418,102.5C 420.436,105.447 423.269,107.78 426.5,109.5 Z M 306.5,103.5 C 315.276,104.288 323.943,105.788 332.5,108C 326.302,112.363 319.969,116.53 313.5,120.5C 304.428,117.702 302.095,112.035 306.5,103.5 Z M 471.5,103.5 C 477.401,101.9 480.401,104.067 480.5,110C 480.499,116.014 477.499,119.514 471.5,120.5C 465.031,116.53 458.698,112.363 452.5,108C 459.006,106.67 465.339,105.17 471.5,103.5 Z M 330.5,124.5 C 333.225,118.409 337.558,116.742 343.5,119.5C 344.919,123.404 344.419,127.07 342,130.5C 337.513,135.476 333.513,140.809 330,146.5C 326.725,156.487 328.559,165.321 335.5,173C 340.515,175.561 345.515,177.228 350.5,178C 344.773,178.853 339.106,180.02 333.5,181.5C 332.833,181.167 332.167,180.833 331.5,180.5C 328.846,171.55 326.346,162.55 324,153.5C 320.447,150.523 318.28,151.357 317.5,156C 319.108,164.933 321.108,173.766 323.5,182.5C 323.167,182.833 322.833,183.167 322.5,183.5C 320.806,181.446 319.639,179.112 319,176.5C 316.859,169.603 315.192,162.603 314,155.5C 310.841,153.829 308.675,154.663 307.5,158C 310.298,167.393 313.298,176.726 316.5,186C 314.836,187.767 313.669,187.267 313,184.5C 310.53,177.422 307.863,170.422 305,163.5C 303.757,161.167 302.091,160.5 300,161.5C 299.333,163.5 299.333,165.5 300,167.5C 303.3,175.4 305.967,183.4 308,191.5C 307,190.5 306,189.5 305,188.5C 301.472,180.916 298.139,173.249 295,165.5C 294.097,164.299 292.931,163.465 291.5,163C 297.677,160.081 303.344,156.414 308.5,152C 315.973,142.855 323.306,133.688 330.5,124.5 Z M 455.5,126.5 C 463.26,136.102 471.26,145.602 479.5,155C 483.841,158.172 488.508,160.839 493.5,163C 492.069,163.465 490.903,164.299 490,165.5C 486.506,171.488 483.839,177.821 482,184.5C 480.579,187.009 478.912,189.343 477,191.5C 479.778,182.579 482.611,173.579 485.5,164.5C 485.351,160.338 483.851,159.672 481,162.5C 466.212,196.162 464.879,195.495 477,160.5C 478.031,157.144 476.864,155.144 473.5,154.5C 472.353,154.818 471.519,155.484 471,156.5C 469.461,163.197 467.794,169.864 466,176.5C 465.527,178.779 464.527,180.779 463,182.5C 464.001,173.477 465.501,164.477 467.5,155.5C 466.339,151.278 464.172,150.612 461,153.5C 458.395,162.481 455.895,171.481 453.5,180.5C 452.833,180.833 452.167,181.167 451.5,181.5C 445.865,180.175 440.198,179.008 434.5,178C 439.451,177.156 444.451,175.489 449.5,173C 456.44,165.27 458.274,156.437 455,146.5C 450.333,139.833 445.667,133.167 441,126.5C 439.287,118.778 442.12,116.278 449.5,119C 452.577,120.662 454.577,123.162 455.5,126.5 Z M 293.5,183.5 C 291.777,181.747 290.277,179.747 289,177.5C 287.813,175.956 287.48,174.289 288,172.5C 290.372,175.91 292.205,179.577 293.5,183.5 Z M 295.5,186.5 C 297.914,187.406 298.747,189.072 298,191.5C 295.961,193.874 293.628,195.874 291,197.5C 289.239,194.589 287.739,191.589 286.5,188.5C 289.391,189.403 292.391,189.736 295.5,189.5C 295.5,188.5 295.5,187.5 295.5,186.5 Z M 509.5,229.5 C 503.859,227.005 498.859,223.505 494.5,219C 491.685,217.279 488.685,216.612 485.5,217C 483.275,219.025 482.941,221.358 484.5,224C 481.387,223.947 478.887,225.114 477,227.5C 461.493,251.899 460.159,251.233 473,225.5C 473.813,223.564 474.313,221.564 474.5,219.5C 469.284,218.077 463.951,217.244 458.5,217C 453.833,214.333 449.167,211.667 444.5,209C 437.416,206.957 432.916,209.457 431,216.5C 429.97,220.773 429.303,225.106 429,229.5C 428.109,234.039 426.276,234.539 423.5,231C 424.425,222.867 426.425,215.034 429.5,207.5C 429.61,205.626 428.944,204.126 427.5,203C 403.781,199.521 380.114,199.687 356.5,203.5C 355.106,208.507 355.939,213.174 359,217.5C 359.696,222.208 360.529,226.874 361.5,231.5C 359.608,234.044 357.775,234.044 356,231.5C 355.851,225.675 354.851,220.008 353,214.5C 350.598,208.908 346.431,207.075 340.5,209C 335.833,211.667 331.167,214.333 326.5,217C 321.049,217.244 315.716,218.077 310.5,219.5C 312.92,227.672 316.42,235.339 321,242.5C 321.749,243.635 321.583,244.635 320.5,245.5C 315.339,238.831 310.339,231.997 305.5,225C 303.744,224.798 302.078,224.298 300.5,223.5C 301.764,216.627 299.097,214.794 292.5,218C 287.281,221.769 281.947,225.269 276.5,228.5C 281.515,222.486 287.515,217.653 294.5,214C 325.797,200.175 358.464,191.342 392.5,187.5C 428.588,191.271 462.921,201.105 495.5,217C 500.957,220.29 505.623,224.457 509.5,229.5 Z M 381.5,208.5 C 383.167,208.5 384.833,208.5 386.5,208.5C 386.775,213.876 387.441,219.209 388.5,224.5C 388.207,229.495 385.541,231.328 380.5,230C 379.167,229.333 378.167,228.333 377.5,227C 379.135,225.252 381.135,224.085 383.5,223.5C 384.78,221.298 384.78,219.132 383.5,217C 378.552,215.95 373.552,215.45 368.5,215.5C 368.607,220.21 368.774,224.877 369,229.5C 366.761,223.938 366.261,218.271 367.5,212.5C 372.106,210.739 376.773,209.406 381.5,208.5 Z M 398.5,208.5 C 404.577,209.068 410.577,210.068 416.5,211.5C 417.764,213.291 418.431,215.291 418.5,217.5C 417.825,221.201 416.991,224.868 416,228.5C 416.077,224.195 416.244,219.862 416.5,215.5C 411.448,215.45 406.448,215.95 401.5,217C 400.409,219.064 400.242,221.231 401,223.5C 403.532,224.006 405.698,225.173 407.5,227C 404.546,230.692 400.88,231.525 396.5,229.5C 396.621,222.443 397.288,215.443 398.5,208.5 Z M 557.5,230.5 C 553.779,230.891 550.779,232.558 548.5,235.5C 548.92,233.906 549.586,232.406 550.5,231C 549.561,229.056 548.227,227.389 546.5,226C 544.156,226.768 541.823,227.935 539.5,229.5C 539.167,229.167 538.833,228.833 538.5,228.5C 543.279,221.861 549.279,217.028 556.5,214C 554.356,216.979 552.022,219.812 549.5,222.5C 552.494,224.827 555.161,227.494 557.5,230.5 Z M 341.5,219.5 C 345.918,223.477 347.751,228.477 347,234.5C 346.5,235 346,235.5 345.5,236C 340.947,237.428 336.447,238.928 332,240.5C 329.59,235.686 327.756,230.686 326.5,225.5C 331.883,224.266 336.883,222.266 341.5,219.5 Z M 442.5,219.5 C 447.78,221.821 453.113,224.154 458.5,226.5C 456.944,231.278 455.11,235.945 453,240.5C 447.738,239.081 442.738,237.081 438,234.5C 437.494,228.85 438.994,223.85 442.5,219.5 Z M 298.5,226.5 C 298.489,228.017 297.823,229.184 296.5,230C 289.041,233.143 282.541,237.643 277,243.5C 276.835,241.322 277.668,239.489 279.5,238C 285.962,234.37 292.295,230.537 298.5,226.5 Z M 486.5,226.5 C 492.473,230.825 498.806,234.658 505.5,238C 507.16,239.488 508.16,241.321 508.5,243.5C 502.726,237.772 496.06,233.272 488.5,230C 487.177,229.184 486.511,228.017 486.5,226.5 Z M 276.5,228.5 C 275.878,229.627 275.045,230.627 274,231.5C 273.481,229.511 274.314,228.511 276.5,228.5 Z M 557.5,230.5 C 559.371,230.859 560.871,231.859 562,233.5C 563.711,230.42 566.211,229.254 569.5,230C 567.845,232.653 565.845,234.986 563.5,237C 565.49,238.751 567.823,239.751 570.5,240C 566.682,243.407 562.682,246.574 558.5,249.5C 556.091,248.299 554.091,246.633 552.5,244.5C 554.269,243.373 555.603,243.873 556.5,246C 560.376,246.486 563.043,244.819 564.5,241C 561.934,237.611 559.601,234.111 557.5,230.5 Z M 299.5,237.5 C 301.39,237.297 302.89,237.963 304,239.5C 306,242.167 308,244.833 310,247.5C 310.982,248.759 311.315,250.092 311,251.5C 290.421,264.764 273.755,281.764 261,302.5C 256.233,300.062 251.733,297.229 247.5,294C 254.122,285.256 260.622,276.422 267,267.5C 277.729,257.266 288.563,247.266 299.5,237.5 Z M 482.5,237.5 C 494.986,245.805 506.486,255.471 517,266.5C 523,274.5 529,282.5 535,290.5C 537.134,292.578 536.968,294.412 534.5,296C 530.98,298.198 527.48,300.365 524,302.5C 511.071,281.903 494.404,264.903 474,251.5C 473.685,250.092 474.018,248.759 475,247.5C 477.717,244.29 480.217,240.956 482.5,237.5 Z M 546.5,237.5 C 546.217,238.289 545.717,238.956 545,239.5C 544.472,238.184 544.972,237.517 546.5,237.5 Z M 259.5,241.5 C 261.199,241.34 262.866,241.506 264.5,242C 266.921,244.094 269.588,245.76 272.5,247C 270.333,249.167 268.167,251.333 266,253.5C 265.161,249.329 262.828,246.329 259,244.5C 258.53,243.423 258.697,242.423 259.5,241.5 Z M 520.5,241.5 C 522.977,241.051 524.977,241.717 526.5,243.5C 522.649,245.847 520.149,249.18 519,253.5C 516.833,251.333 514.667,249.167 512.5,247C 515.273,245.231 517.94,243.398 520.5,241.5 Z M 206.5,245.5 C 211.405,247.963 216.071,250.963 220.5,254.5C 221.888,255.591 222.388,256.924 222,258.5C 216.917,255.757 212.084,252.59 207.5,249C 206.663,247.989 206.33,246.822 206.5,245.5 Z M 577.5,245.5 C 578.776,246.386 578.776,247.386 577.5,248.5C 572.529,251.638 567.696,254.972 563,258.5C 563.546,255.907 565.046,253.74 567.5,252C 571.069,250.058 574.402,247.892 577.5,245.5 Z M 420.5,288.5 C 415.758,284.255 411.092,279.755 406.5,275C 404.726,274.03 402.893,273.196 401,272.5C 399.139,273.609 398.305,275.275 398.5,277.5C 400.495,283.15 402.495,288.816 404.5,294.5C 404.17,300.382 401.503,302.215 396.5,300C 401.54,292.261 400.207,285.928 392.5,281C 389.833,279.667 387.167,278.333 384.5,277C 392.371,272.759 395.537,266.259 394,257.5C 393.07,255.448 391.57,253.948 389.5,253C 382.733,251.567 376.566,252.734 371,256.5C 358.444,254.389 355.278,258.889 361.5,270C 365.709,271.189 369.376,270.356 372.5,267.5C 375.063,270.142 377.729,272.642 380.5,275C 368.635,276.19 364.301,282.69 367.5,294.5C 369.5,294.5 371.5,294.5 373.5,294.5C 374.204,302.316 375.704,309.983 378,317.5C 383.396,324.632 390.396,326.965 399,324.5C 402.956,325.956 405.79,328.623 407.5,332.5C 404.253,335.977 400.42,338.643 396,340.5C 395.231,343.099 395.398,345.599 396.5,348C 389.124,348.253 381.791,348.919 374.5,350C 366.719,352.725 359.385,356.225 352.5,360.5C 354.382,356.019 354.882,351.353 354,346.5C 353.612,345.572 352.945,344.905 352,344.5C 346.19,346.27 340.357,347.937 334.5,349.5C 329.885,362.67 334.218,367.67 347.5,364.5C 341.838,370.33 336.338,376.33 331,382.5C 330.667,383.833 330.333,385.167 330,386.5C 326.713,383.596 324.713,379.929 324,375.5C 321.404,363.698 320.238,351.865 320.5,340C 327.675,341.67 333.509,339.503 338,333.5C 338.755,330.697 338.422,328.03 337,325.5C 334.552,323.369 332.052,321.369 329.5,319.5C 331.028,313.822 334.361,309.989 339.5,308C 336.846,312.449 335.68,317.282 336,322.5C 344.238,323.631 349.238,319.964 351,311.5C 353.64,302.664 354.64,293.664 354,284.5C 351.612,279.774 347.778,278.274 342.5,280C 338.526,283.967 335.359,288.467 333,293.5C 320.261,300.959 311.261,311.626 306,325.5C 292.562,359.664 289.896,394.664 298,430.5C 301.429,444.348 306.762,457.348 314,469.5C 316.057,476.525 313.724,481.859 307,485.5C 306.667,487.167 306.333,488.833 306,490.5C 266.541,456.89 249.874,414.224 256,362.5C 269.617,299.217 308.117,261.05 371.5,248C 432.344,242.174 478.844,265.007 511,316.5C 538.699,371.737 533.699,423.737 496,472.5C 459.087,513.114 413.587,527.947 359.5,517C 341.196,512.18 324.53,504.18 309.5,493C 315.773,492.028 321.773,490.195 327.5,487.5C 332.867,490.356 337.534,494.19 341.5,499C 343.92,499.915 345.253,499.082 345.5,496.5C 342.386,487.387 341.219,478.054 342,468.5C 342.419,467.328 343.085,466.328 344,465.5C 348.833,469 353.667,472.5 358.5,476C 355.316,475.312 352.149,475.479 349,476.5C 347.8,485.499 349.3,493.999 353.5,502C 355.167,502.667 356.833,502.667 358.5,502C 362.71,496.122 367.877,491.289 374,487.5C 381.793,492.276 384.793,499.276 383,508.5C 384.025,512.629 386.692,514.629 391,514.5C 411.545,509.543 431.045,502.043 449.5,492C 460.56,481.744 469.06,469.578 475,455.5C 491.083,415.664 492.417,375.331 479,334.5C 465.329,301.995 441.829,279.995 408.5,268.5C 409.538,273.059 412.038,276.726 416,279.5C 417.761,282.411 419.261,285.411 420.5,288.5 Z M 207.5,324.5 C 210.922,312.732 215.422,301.398 221,290.5C 230.029,277.637 238.862,264.637 247.5,251.5C 248.591,250.112 249.924,249.612 251.5,250C 245.203,261.434 238.036,272.267 230,282.5C 227.369,286.089 226.203,290.089 226.5,294.5C 230.273,295.178 233.106,293.844 235,290.5C 235.333,292.833 235.667,295.167 236,297.5C 241.577,301.706 247.41,305.54 253.5,309C 255.784,310.363 255.951,311.863 254,313.5C 243.598,307.117 232.432,303.284 220.5,302C 218.448,302.93 216.948,304.43 216,306.5C 213.428,312.766 210.594,318.766 207.5,324.5 Z M 577.5,324.5 C 574.546,319.517 572.046,314.184 570,308.5C 567.86,302.513 563.693,300.346 557.5,302C 551.264,304.48 544.931,306.814 538.5,309C 535.982,310.502 533.482,312.002 531,313.5C 529.049,311.863 529.216,310.363 531.5,309C 537,305.5 542.5,302 548,298.5C 549.092,295.956 549.759,293.289 550,290.5C 551.677,294.051 554.51,295.384 558.5,294.5C 558.797,290.089 557.631,286.089 555,282.5C 546.952,272.234 539.785,261.4 533.5,250C 535.745,250.195 537.578,251.362 539,253.5C 547.274,266.772 555.941,279.772 565,292.5C 570.059,302.847 574.225,313.514 577.5,324.5 Z M 237.5,287.5 C 242.395,278.05 248.061,269.05 254.5,260.5C 256.193,258.973 258.027,257.64 260,256.5C 260.5,257 261,257.5 261.5,258C 253.574,266.272 246.741,275.439 241,285.5C 240.184,286.823 239.017,287.489 237.5,287.5 Z M 547.5,287.5 C 545.983,287.489 544.816,286.823 544,285.5C 538.259,275.439 531.426,266.272 523.5,258C 524,257.5 524.5,257 525,256.5C 528.667,258.833 531.667,261.833 534,265.5C 538.773,272.722 543.273,280.055 547.5,287.5 Z M 187.5,264.5 C 188.251,263.427 189.251,263.26 190.5,264C 198.044,266.93 204.711,271.096 210.5,276.5C 210.167,276.833 209.833,277.167 209.5,277.5C 201.809,273.659 194.476,269.326 187.5,264.5 Z M 576.5,275.5 C 581.317,270.76 586.984,267.593 593.5,266C 588.102,269.698 582.435,272.864 576.5,275.5 Z M 181.5,273.5 C 190.526,277.549 199.526,281.549 208.5,285.5C 204.142,297.387 198.809,308.887 192.5,320C 188.887,320.208 185.554,319.208 182.5,317C 181.639,313.834 182.472,311 185,308.5C 185.87,309.108 186.37,309.941 186.5,311C 184.988,314.023 185.988,315.856 189.5,316.5C 190.086,316.291 190.586,315.957 191,315.5C 195.769,305.962 200.603,296.629 205.5,287.5C 198.569,284.957 191.736,281.957 185,278.5C 183.775,278.862 182.609,279.362 181.5,280C 178.702,285.92 175.369,291.587 171.5,297C 172.748,298.959 174.415,300.459 176.5,301.5C 177.48,300.019 178.647,298.685 180,297.5C 180.692,298.025 181.192,298.692 181.5,299.5C 180.627,301.413 179.627,303.247 178.5,305C 173.884,304.857 170.217,302.857 167.5,299C 172.311,290.542 176.978,282.042 181.5,273.5 Z M 601.5,273.5 C 608.353,280.721 613.686,289.054 617.5,298.5C 617.392,299.442 617.059,300.275 616.5,301C 614.156,301.837 612.156,303.171 610.5,305C 608.299,305.825 606.466,305.325 605,303.5C 604.293,301.919 603.46,300.419 602.5,299C 603.275,297.77 604.275,297.437 605.5,298C 608.089,302.507 610.422,302.507 612.5,298C 610.136,292.772 607.636,287.606 605,282.5C 604.255,281.01 603.088,280.01 601.5,279.5C 595.072,282.088 588.739,284.921 582.5,288C 582.043,288.414 581.709,288.914 581.5,289.5C 586.202,297.769 590.035,306.436 593,315.5C 596.814,317.019 597.981,315.853 596.5,312C 599.101,308.533 600.934,309.033 602,313.5C 602.711,315.367 602.211,316.867 600.5,318C 598.412,319.03 596.245,319.863 594,320.5C 591.883,318.968 590.216,316.968 589,314.5C 584.884,305.102 580.384,295.936 575.5,287C 584.387,282.565 593.054,278.065 601.5,273.5 Z M 149.5,281.5 C 149.312,279.897 149.812,278.563 151,277.5C 151.348,279.14 150.848,280.473 149.5,281.5 Z M 443.5,333.5 C 443.641,329.907 444.308,326.407 445.5,323C 441.652,311.469 434.986,301.803 425.5,294C 431.443,297.237 436.943,301.403 442,306.5C 445.588,311.676 448.088,317.343 449.5,323.5C 447.99,327.196 445.99,330.529 443.5,333.5 Z M 617.5,310.5 C 619.888,311.219 621.388,312.885 622,315.5C 622.808,317.579 622.641,319.579 621.5,321.5C 613.827,324.445 606.161,327.278 598.5,330C 599.911,336.732 600.911,343.565 601.5,350.5C 600.876,353.746 599.709,354.079 598,351.5C 596.371,344.356 594.871,337.189 593.5,330C 594.34,328.233 595.673,326.899 597.5,326C 603.775,323.847 610.108,321.847 616.5,320C 617.337,318.989 617.67,317.822 617.5,316.5C 615.023,316.949 613.023,316.283 611.5,314.5C 611.833,313.833 612.167,313.167 612.5,312.5C 614.291,311.83 615.958,311.163 617.5,310.5 Z M 164.5,311.5 C 174.163,312.272 174.496,313.439 165.5,315C 163.854,316.555 163.521,318.221 164.5,320C 173.293,322.486 181.793,325.652 190,329.5C 189.23,336.8 188.23,344.134 187,351.5C 186.29,352.973 185.124,353.64 183.5,353.5C 184.274,346.155 184.774,338.822 185,331.5C 176.897,328.189 168.73,325.189 160.5,322.5C 161.067,318.458 162.4,314.791 164.5,311.5 Z M 214.5,334.5 C 214.671,325.449 218.338,318.283 225.5,313C 234.357,313.758 242.524,316.592 250,321.5C 250.779,328.609 248.279,334.275 242.5,338.5C 236.808,336.769 231.141,334.936 225.5,333C 221.598,332.112 217.931,332.612 214.5,334.5 Z M 570.5,334.5 C 567.069,332.612 563.402,332.112 559.5,333C 553.859,334.936 548.192,336.769 542.5,338.5C 536.71,334.256 534.21,328.589 535,321.5C 537.03,319.263 539.53,317.763 542.5,317C 548.093,315.017 553.759,313.684 559.5,313C 566.488,318.475 570.154,325.642 570.5,334.5 Z M 615.5,329.5 C 618.448,329.223 621.281,329.556 624,330.5C 624.684,331.784 624.517,332.951 623.5,334C 621.527,334.495 619.527,334.662 617.5,334.5C 617.261,336.467 617.594,338.301 618.5,340C 622.089,340.207 625.589,340.707 629,341.5C 629.667,345.5 629.667,349.5 629,353.5C 625.951,354.61 622.784,355.277 619.5,355.5C 620.242,361.49 620.409,367.49 620,373.5C 614.333,374.167 608.667,374.833 603,375.5C 600.01,371.816 599.843,368.15 602.5,364.5C 603.086,364.709 603.586,365.043 604,365.5C 604.495,367.473 604.662,369.473 604.5,371.5C 608.437,371.793 612.27,371.46 616,370.5C 616.653,364.138 616.487,357.805 615.5,351.5C 618.85,351.665 622.183,351.498 625.5,351C 626.423,348.959 626.756,346.792 626.5,344.5C 622.158,344.261 617.824,343.927 613.5,343.5C 612.962,338.533 613.629,333.866 615.5,329.5 Z M 214.5,334.5 C 214.215,336.288 214.548,337.955 215.5,339.5C 217.002,340.083 218.335,340.916 219.5,342C 226.641,343.535 233.641,345.535 240.5,348C 231.935,349.275 223.268,349.942 214.5,350C 211.833,352.667 211.833,355.333 214.5,358C 223.065,359.275 231.732,359.942 240.5,360C 238.091,360.935 235.591,361.435 233,361.5C 227.515,360.584 222.015,360.418 216.5,361C 214.324,361.163 212.491,361.996 211,363.5C 211.651,375.502 211.484,387.502 210.5,399.5C 210.547,405.54 211.047,411.54 212,417.5C 213.4,418.116 214.9,418.449 216.5,418.5C 224.803,416.906 233.136,415.572 241.5,414.5C 241.714,416.144 241.38,417.644 240.5,419C 233.172,420.999 225.838,422.999 218.5,425C 215.797,425.865 214.464,427.699 214.5,430.5C 216.495,436.975 218.995,443.308 222,449.5C 223.713,453.873 226.213,457.707 229.5,461C 238.287,461.015 246.287,458.515 253.5,453.5C 254.646,454.145 255.646,454.978 256.5,456C 249.06,460.442 241.894,465.275 235,470.5C 234.505,472.473 234.338,474.473 234.5,476.5C 229.707,468.262 224.874,459.928 220,451.5C 217.383,443.642 214.383,435.975 211,428.5C 209.445,426.485 207.611,426.152 205.5,427.5C 204.681,431.118 204.681,434.784 205.5,438.5C 201.189,425.614 198.523,412.281 197.5,398.5C 197.421,395.045 197.921,391.712 199,388.5C 200.214,398.52 201.547,408.52 203,418.5C 204.733,420.602 206.733,420.935 209,419.5C 208.742,407.346 208.242,395.18 207.5,383C 208.088,372.298 209.088,361.632 210.5,351C 211.074,346.24 209.074,344.24 204.5,345C 203.874,345.75 203.374,346.584 203,347.5C 201.488,356.104 200.488,364.77 200,373.5C 198.909,379.641 197.743,379.808 196.5,374C 197.228,367.857 197.728,361.691 198,355.5C 199.929,347.047 202.262,338.714 205,330.5C 206.002,337.975 209.169,339.308 214.5,334.5 Z M 570.5,334.5 C 575.831,339.308 578.998,337.975 580,330.5C 582.716,339.641 585.216,348.808 587.5,358C 586.919,358.893 586.585,359.893 586.5,361C 587.094,365.351 587.761,369.685 588.5,374C 588.22,375.395 587.553,376.562 586.5,377.5C 584.734,366.874 582.9,356.207 581,345.5C 578.67,343.968 576.67,344.302 575,346.5C 575.279,358.85 576.112,371.183 577.5,383.5C 576.627,395.504 576.127,407.504 576,419.5C 578.267,420.935 580.267,420.602 582,418.5C 583.169,408.803 584.502,399.136 586,389.5C 587.057,392.207 587.557,395.04 587.5,398C 586.194,411.393 583.694,424.559 580,437.5C 579.501,433.848 579.335,430.182 579.5,426.5C 576.675,426.081 574.509,427.081 573,429.5C 567.954,445.993 560.621,461.326 551,475.5C 551.053,472.387 549.886,469.887 547.5,468C 541.335,463.75 535.002,459.75 528.5,456C 529.333,455.167 530.167,454.333 531,453.5C 538.472,458.436 546.639,460.936 555.5,461C 561.935,451.629 566.935,441.462 570.5,430.5C 570.563,428.519 569.896,426.852 568.5,425.5C 561.047,422.641 553.381,420.475 545.5,419C 543.893,417.951 543.227,416.451 543.5,414.5C 551.667,415.766 559.834,417.1 568,418.5C 569.764,418.456 571.431,418.122 573,417.5C 573.884,411.7 574.384,405.867 574.5,400C 573.402,388.164 573.235,376.33 574,364.5C 572.758,362.459 570.925,361.293 568.5,361C 562.985,360.418 557.485,360.584 552,361.5C 549.102,361.363 546.269,360.863 543.5,360C 552.601,359.945 561.601,359.278 570.5,358C 573.034,355.413 573.034,352.747 570.5,350C 561.425,349.915 552.425,349.248 543.5,348C 550.75,345.687 558.084,343.687 565.5,342C 569.007,340.67 570.673,338.17 570.5,334.5 Z M 160.5,331.5 C 163.833,331.5 167.167,331.5 170.5,331.5C 171.671,335.518 171.671,339.518 170.5,343.5C 166.833,344.167 163.167,344.833 159.5,345.5C 159.291,346.086 158.957,346.586 158.5,347C 158.616,348.268 158.949,349.602 159.5,351C 162.482,351.498 165.482,351.665 168.5,351.5C 168.763,357.05 168.43,362.55 167.5,368C 167.905,368.945 168.572,369.612 169.5,370C 172.89,370.246 176.223,370.746 179.5,371.5C 180.012,369.149 181.012,367.149 182.5,365.5C 183.484,368.428 183.817,371.428 183.5,374.5C 177.242,374.81 171.076,374.476 165,373.5C 164.5,367.175 164.334,360.842 164.5,354.5C 161.315,354.98 158.481,354.314 156,352.5C 155.501,348.848 155.335,345.182 155.5,341.5C 159.514,341.666 163.514,341.499 167.5,341C 168.333,338.919 168.333,336.752 167.5,334.5C 165.167,334.5 162.833,334.5 160.5,334.5C 160.5,333.5 160.5,332.5 160.5,331.5 Z M 440.5,340.5 C 445.306,346.692 450.806,352.359 457,357.5C 459.076,363.178 461.743,368.511 465,373.5C 465.16,380.222 464.494,386.889 463,393.5C 462.726,396.715 461.393,399.381 459,401.5C 457.846,400.257 456.512,399.257 455,398.5C 446.447,385.226 437.28,372.393 427.5,360C 418.622,353.373 408.622,349.706 397.5,349C 399.218,348.654 400.885,348.154 402.5,347.5C 421.576,351.072 435.742,361.405 445,378.5C 453.744,387.737 458.078,386.07 458,373.5C 455.627,367.089 452.461,361.089 448.5,355.5C 440.937,353.162 438.271,348.162 440.5,340.5 Z M 400.5,367.5 C 398.167,367.5 395.833,367.5 393.5,367.5C 393.5,368.833 393.5,370.167 393.5,371.5C 390.098,371.342 386.764,371.676 383.5,372.5C 383.45,378.342 386.45,380.675 392.5,379.5C 392.66,381.199 392.494,382.866 392,384.5C 389.667,383.167 387.333,383.167 385,384.5C 384.28,386.112 384.446,387.612 385.5,389C 382.79,390.46 382.124,392.46 383.5,395C 388.19,395.503 392.857,396.17 397.5,397C 396.383,400.073 396.216,403.24 397,406.5C 398.598,410.461 400.098,414.461 401.5,418.5C 399.576,422.799 396.242,425.133 391.5,425.5C 391.07,428.862 392.07,431.695 394.5,434C 391.886,433.468 389.22,433.135 386.5,433C 384.992,438.027 386.992,440.86 392.5,441.5C 395.085,440.927 396.085,439.261 395.5,436.5C 401.167,439.429 407.167,441.762 413.5,443.5C 403.299,446.774 392.966,449.608 382.5,452C 381.027,452.71 380.36,453.876 380.5,455.5C 394.852,454.461 409.186,453.128 423.5,451.5C 426.454,451.291 429.121,451.958 431.5,453.5C 430.395,454.892 429.061,456.059 427.5,457C 418.771,461.364 410.104,465.698 401.5,470C 391.088,474.58 380.755,474.247 370.5,469C 361.696,466.103 354.029,461.436 347.5,455C 351.443,452.196 355.777,450.196 360.5,449C 368.5,448 376.5,447 384.5,446C 385.516,445.481 386.182,444.647 386.5,443.5C 385.74,441.563 384.74,439.73 383.5,438C 378.066,434.532 372.899,430.699 368,426.5C 364.169,416.001 358.669,406.501 351.5,398C 349.19,397.503 346.857,397.337 344.5,397.5C 343.092,393.741 343.258,390.075 345,386.5C 358.967,366.731 377.8,359.564 401.5,365C 400.748,365.671 400.414,366.504 400.5,367.5 Z M 627.5,363.5 C 630.121,363.477 631.455,364.811 631.5,367.5C 630.592,373.125 630.258,378.792 630.5,384.5C 622.514,385.099 614.514,385.432 606.5,385.5C 606.5,387.167 606.5,388.833 606.5,390.5C 609.119,390.232 611.619,390.565 614,391.5C 614.498,394.482 614.665,397.482 614.5,400.5C 618.571,400.234 622.571,400.567 626.5,401.5C 627.661,405.795 627.828,410.129 627,414.5C 624.599,415.602 622.099,415.769 619.5,415C 619.043,414.586 618.709,414.086 618.5,413.5C 622.544,412.406 624.211,409.739 623.5,405.5C 619.51,405.001 615.51,404.501 611.5,404C 610.549,400.943 610.216,397.777 610.5,394.5C 607.833,394.167 605.167,393.833 602.5,393.5C 602.207,389.563 602.54,385.73 603.5,382C 610.642,380.888 617.808,380.054 625,379.5C 626.112,374.197 626.945,368.864 627.5,363.5 Z M 154.5,364.5 C 155.458,364.953 156.292,365.619 157,366.5C 157.401,371.62 157.901,376.453 158.5,381C 166.458,381.151 174.291,381.985 182,383.5C 182.667,386.833 182.667,390.167 182,393.5C 179.619,394.435 177.119,394.768 174.5,394.5C 174.665,397.518 174.498,400.518 174,403.5C 169.667,404.833 165.333,404.833 161,403.5C 159.625,405.937 159.125,408.603 159.5,411.5C 162.167,411.5 164.833,411.5 167.5,411.5C 167.5,412.5 167.5,413.5 167.5,414.5C 163.894,414.789 160.394,414.456 157,413.5C 156.503,409.476 156.669,405.476 157.5,401.5C 161.871,401.125 166.204,400.459 170.5,399.5C 171.393,396.916 171.726,394.249 171.5,391.5C 173.857,391.663 176.19,391.497 178.5,391C 179.833,389.333 179.833,387.667 178.5,386C 170.475,385.699 162.475,385.199 154.5,384.5C 154.046,377.776 154.046,371.109 154.5,364.5 Z M 439.5,386.5 C 434.777,384.641 430.11,382.474 425.5,380C 419.422,376.639 413.755,372.805 408.5,368.5C 411.006,369.75 413.673,370.416 416.5,370.5C 415.874,366.805 416.874,365.971 419.5,368C 427.017,373.354 433.683,379.521 439.5,386.5 Z M 234.5,367.5 C 236.5,367.5 238.5,367.5 240.5,367.5C 239.962,371.524 239.295,375.524 238.5,379.5C 232.167,379.5 225.833,379.5 219.5,379.5C 219.5,376.167 219.5,372.833 219.5,369.5C 221.167,369.5 222.833,369.5 224.5,369.5C 224.244,371.792 224.577,373.959 225.5,376C 228.146,376.497 230.813,376.664 233.5,376.5C 233.508,373.455 233.841,370.455 234.5,367.5 Z M 544.5,367.5 C 546.5,367.5 548.5,367.5 550.5,367.5C 551.159,370.455 551.492,373.455 551.5,376.5C 554.187,376.664 556.854,376.497 559.5,376C 560.833,374 560.833,372 559.5,370C 561.473,369.505 563.473,369.338 565.5,369.5C 565.5,372.833 565.5,376.167 565.5,379.5C 559.132,379.83 552.798,379.496 546.5,378.5C 545.51,374.895 544.844,371.228 544.5,367.5 Z M 393.5,371.5 C 398.055,373.887 401.388,377.387 403.5,382C 403.333,382.833 403.167,383.667 403,384.5C 401.167,382.667 399.333,380.833 397.5,379C 395.803,378.616 394.137,378.782 392.5,379.5C 394.757,377.122 395.09,374.455 393.5,371.5 Z M 220.5,387.5 C 226.093,387.193 231.593,387.527 237,388.5C 239.149,392.087 238.816,395.42 236,398.5C 235.275,394.357 233.109,391.357 229.5,389.5C 227.885,390.154 226.218,390.654 224.5,391C 223.224,395.623 223.891,399.956 226.5,404C 230.541,404.173 234.541,404.673 238.5,405.5C 238.291,406.086 237.957,406.586 237.5,407C 232.536,408.588 227.536,408.755 222.5,407.5C 219.44,401.05 218.774,394.383 220.5,387.5 Z M 549.5,387.5 C 554.179,387.334 558.845,387.501 563.5,388C 564,388.5 564.5,389 565,389.5C 565.667,393.167 565.667,396.833 565,400.5C 563.663,408.177 559.163,410.677 551.5,408C 549.579,407.64 547.912,406.806 546.5,405.5C 550.166,404.589 553.832,404.422 557.5,405C 559.766,403.486 560.932,401.319 561,398.5C 563.5,390.333 560.667,387.5 552.5,390C 551.385,392.707 550.052,395.207 548.5,397.5C 545.696,393.852 546.03,390.518 549.5,387.5 Z M 607.5,407.5 C 609.384,407.712 610.717,408.712 611.5,410.5C 609.098,411.575 606.764,412.742 604.5,414C 605.227,415.399 605.727,416.899 606,418.5C 608.999,418.676 612.165,419.176 615.5,420C 616.294,423.441 616.46,426.941 616,430.5C 618.405,431.274 620.905,431.774 623.5,432C 624.165,439.012 622.165,445.346 617.5,451C 613.085,453.206 609.085,452.706 605.5,449.5C 606,448.119 607,447.453 608.5,447.5C 610.473,448.331 612.473,448.498 614.5,448C 616.229,443.876 618.229,439.876 620.5,436C 618.106,435.016 615.606,434.516 613,434.5C 611.646,430.637 611.146,426.637 611.5,422.5C 601.747,424.247 597.914,420.247 600,410.5C 602.48,409.188 604.98,408.188 607.5,407.5 Z M 174.5,408.5 C 177.836,408.467 181.003,409.134 184,410.5C 184.667,413.833 184.667,417.167 184,420.5C 180.67,423.011 176.837,424.011 172.5,423.5C 172.665,426.85 172.498,430.183 172,433.5C 170.175,434.103 168.341,434.77 166.5,435.5C 168.635,439.465 170.968,443.298 173.5,447C 175.886,446.649 178.219,446.815 180.5,447.5C 177.242,451.793 173.409,452.459 169,449.5C 165.4,444.301 162.9,438.635 161.5,432.5C 163.92,432.708 166.253,432.374 168.5,431.5C 169.137,427.938 169.47,424.438 169.5,421C 172.432,420.047 175.432,419.547 178.5,419.5C 178.5,417.5 178.5,415.5 178.5,413.5C 173.663,413.724 172.33,412.058 174.5,408.5 Z M 241.5,428.5 C 242.822,428.33 243.989,428.663 245,429.5C 247.007,434.02 248.507,438.687 249.5,443.5C 243.171,444.624 237.004,446.29 231,448.5C 227.933,443.814 226.433,438.814 226.5,433.5C 231.463,431.352 236.463,429.685 241.5,428.5 Z M 540.5,428.5 C 546.327,429.534 551.994,431.201 557.5,433.5C 558.614,434.723 558.781,436.056 558,437.5C 556.997,441.392 555.164,444.725 552.5,447.5C 547.313,445.548 541.98,444.215 536.5,443.5C 537.424,438.393 538.758,433.393 540.5,428.5 Z M 593.5,439.5 C 595.722,439.559 596.722,440.725 596.5,443C 595.545,446.471 595.378,449.971 596,453.5C 600.926,456.714 606.093,459.548 611.5,462C 612.187,465.965 611.187,469.632 608.5,473C 605.15,473.93 602.317,473.097 600,470.5C 599.517,469.552 599.351,468.552 599.5,467.5C 601.936,467.317 604.103,467.984 606,469.5C 607.084,468.335 607.917,467.002 608.5,465.5C 602.585,462.293 596.752,458.96 591,455.5C 590.494,449.844 591.327,444.511 593.5,439.5 Z M 188.5,441.5 C 189.919,440.549 191.585,440.216 193.5,440.5C 193.504,444.027 193.837,447.527 194.5,451C 194.274,454.012 193.441,456.845 192,459.5C 188.24,460.96 184.406,462.293 180.5,463.5C 179.558,463.392 178.725,463.059 178,462.5C 176.736,468.987 178.903,470.653 184.5,467.5C 185.5,467.833 186.167,468.5 186.5,469.5C 178.991,474.861 174.324,473.028 172.5,464C 172.645,463.228 172.978,462.561 173.5,462C 179.141,460.429 184.307,457.929 189,454.5C 189.814,449.98 189.647,445.646 188.5,441.5 Z M 206.5,441.5 C 213.303,455.106 220.136,468.773 227,482.5C 233.617,493.307 241.284,503.307 250,512.5C 251.401,514.146 251.568,515.813 250.5,517.5C 248.807,515.973 246.973,514.64 245,513.5C 238.674,505.516 232.841,497.183 227.5,488.5C 222.842,478.516 217.676,468.849 212,459.5C 209.857,453.572 208.023,447.572 206.5,441.5 Z M 577.5,443.5 C 575.983,449.555 574.149,455.555 572,461.5C 564.522,474.926 556.855,488.259 549,501.5C 545.034,507.632 540.2,512.966 534.5,517.5C 533.713,516.758 533.047,515.925 532.5,515C 540.369,506.069 547.869,496.903 555,487.5C 562.614,472.773 570.114,458.106 577.5,443.5 Z M 192.5,464.5 C 197.494,464.329 199.328,466.662 198,471.5C 193.515,475.408 188.848,479.074 184,482.5C 183.177,486.199 184.677,488.533 188.5,489.5C 193.109,486.89 197.442,483.89 201.5,480.5C 203.85,482.687 205.85,485.187 207.5,488C 205.971,491.029 203.638,493.195 200.5,494.5C 199.5,494.167 198.833,493.5 198.5,492.5C 200.36,491.061 202.027,489.395 203.5,487.5C 202.833,486.167 201.833,485.167 200.5,484.5C 196.12,487.382 191.62,490.048 187,492.5C 181.598,490.332 179.598,486.332 181,480.5C 185.048,476.784 189.382,473.45 194,470.5C 193.405,468.65 192.905,466.65 192.5,464.5 Z M 588.5,464.5 C 589.5,464.5 590.5,464.5 591.5,464.5C 591.25,467.214 591.083,469.881 591,472.5C 595.167,475.333 599.333,478.167 603.5,481C 605.017,486.59 603.017,490.423 597.5,492.5C 592.599,490.271 587.933,487.605 583.5,484.5C 582.585,485.328 581.919,486.328 581.5,487.5C 583.226,489.228 584.559,491.228 585.5,493.5C 585.167,493.833 584.833,494.167 584.5,494.5C 577.859,491.236 576.859,486.736 581.5,481C 582.5,480.333 583.5,480.333 584.5,481C 588.469,484.137 592.803,486.637 597.5,488.5C 599.707,488.119 601.04,486.786 601.5,484.5C 596.476,480.309 591.31,476.309 586,472.5C 586.107,469.676 586.94,467.009 588.5,464.5 Z M 259.5,465.5 C 261.017,465.511 262.184,466.177 263,467.5C 275.151,486.509 290.817,501.842 310,513.5C 308.374,519.746 305.374,525.413 301,530.5C 295.753,527.794 290.586,524.96 285.5,522C 278.282,515.443 271.115,508.943 264,502.5C 257.755,494.343 251.755,486.01 246,477.5C 245.251,476.365 245.417,475.365 246.5,474.5C 251.074,471.724 255.407,468.724 259.5,465.5 Z M 523.5,465.5 C 528.61,468.226 533.61,471.226 538.5,474.5C 539.583,475.365 539.749,476.365 539,477.5C 527.267,494.567 513.434,509.734 497.5,523C 493.049,525.641 488.549,528.141 484,530.5C 480.251,525.338 476.751,520.004 473.5,514.5C 482.201,509.633 490.201,503.8 497.5,497C 507.511,487.5 516.178,477 523.5,465.5 Z M 196.5,478.5 C 197.527,477.152 198.86,476.652 200.5,477C 199.437,478.188 198.103,478.688 196.5,478.5 Z M 589.5,479.5 C 587.577,479.205 585.91,478.372 584.5,477C 586.668,476.751 588.335,477.584 589.5,479.5 Z M 547.5,481.5 C 547.573,483.027 546.906,484.027 545.5,484.5C 545.427,482.973 546.094,481.973 547.5,481.5 Z M 238.5,483.5 C 249.935,495.64 260.935,508.307 271.5,521.5C 279.141,528.659 287.808,534.326 297.5,538.5C 298.23,540.341 298.897,542.175 299.5,544C 302.099,544.769 304.599,544.602 307,543.5C 310.865,536.435 314.198,529.102 317,521.5C 319.33,517.553 321.497,517.553 323.5,521.5C 320.343,529.795 316.509,537.795 312,545.5C 310.788,548.834 311.621,551.334 314.5,553C 324.895,551.122 334.229,553.789 342.5,561C 345.167,561.667 347.833,561.667 350.5,561C 351.126,560.25 351.626,559.416 352,558.5C 352.94,551.156 353.94,543.822 355,536.5C 355.93,534.455 357.43,533.621 359.5,534C 361.013,542.289 359.347,549.955 354.5,557C 355.287,559.099 355.62,561.266 355.5,563.5C 380.167,566.167 404.833,566.167 429.5,563.5C 429.665,560.482 429.498,557.482 429,554.5C 425.127,548.34 423.793,541.673 425,534.5C 427.488,533.588 429.155,534.588 430,537.5C 430.839,545.568 432.006,553.568 433.5,561.5C 436.518,561.665 439.518,561.498 442.5,561C 450.278,553.953 459.111,551.453 469,553.5C 473.206,552.407 474.539,549.74 473,545.5C 469.093,538.689 465.427,531.689 462,524.5C 461.077,521.722 461.911,519.722 464.5,518.5C 465.478,518.977 466.311,519.643 467,520.5C 469.884,528.768 473.717,536.601 478.5,544C 483.655,545.677 486.655,543.844 487.5,538.5C 494.831,534.837 501.831,530.67 508.5,526C 521.07,512.27 533.403,498.437 545.5,484.5C 539.223,495.373 531.723,505.373 523,514.5C 522.362,515.609 521.862,516.775 521.5,518C 525.395,520.012 526.228,522.846 524,526.5C 496.388,553.31 463.554,569.31 425.5,574.5C 417.791,576.757 409.958,578.424 402,579.5C 400.775,579.138 399.609,578.638 398.5,578C 406.342,577.637 414.009,576.304 421.5,574C 424.412,573.155 425.412,571.488 424.5,569C 403.167,568.333 381.833,568.333 360.5,569C 359.588,571.488 360.588,573.155 363.5,574C 370.991,576.304 378.658,577.637 386.5,578C 353.11,576.443 321.443,567.443 291.5,551C 279.993,543.819 269.493,535.319 260,525.5C 259.752,522.49 260.418,519.824 262,517.5C 256,509.5 250,501.5 244,493.5C 241.909,490.26 240.076,486.926 238.5,483.5 Z M 190.5,497.5 C 191.552,497.351 192.552,497.517 193.5,498C 195.101,501.067 197.268,503.567 200,505.5C 203.072,504.047 205.905,502.213 208.5,500C 209.899,499.405 211.232,499.572 212.5,500.5C 215,503.5 217.5,506.5 220,509.5C 221.59,511.65 222.257,513.983 222,516.5C 220.488,517.257 219.154,518.257 218,519.5C 217.333,518.833 216.667,518.167 216,517.5C 216.155,515.189 216.155,512.856 216,510.5C 214.5,508.333 213,506.167 211.5,504C 207.595,504.174 204.261,505.841 201.5,509C 196.573,509.449 193.073,507.282 191,502.5C 189.481,500.861 189.314,499.194 190.5,497.5 Z M 574.5,498.5 C 578.929,499.743 582.762,502.077 586,505.5C 587.655,502.847 589.655,500.514 592,498.5C 593.974,503.569 592.307,507.236 587,509.5C 583.539,506.685 579.706,504.851 575.5,504C 573.333,506.833 571.167,509.667 569,512.5C 568.666,514.847 568.833,517.181 569.5,519.5C 564.849,518.826 563.349,516.159 565,511.5C 567.687,506.782 570.854,502.449 574.5,498.5 Z M 227.5,509.5 C 228.906,509.973 229.573,510.973 229.5,512.5C 228.094,512.027 227.427,511.027 227.5,509.5 Z M 557.5,509.5 C 557.262,511.404 556.262,512.738 554.5,513.5C 554.738,511.596 555.738,510.262 557.5,509.5 Z M 205.5,512.5 C 206.478,512.811 207.145,513.478 207.5,514.5C 205.876,515.869 205.376,517.536 206,519.5C 209.022,522.522 212.022,525.522 215,528.5C 217.728,526.108 220.728,524.108 224,522.5C 228.811,523.309 231.477,525.976 232,530.5C 229.819,533.344 227.653,536.178 225.5,539C 226.484,540.657 227.484,542.323 228.5,544C 227.929,545.205 227.262,546.372 226.5,547.5C 223.963,545.798 221.963,543.631 220.5,541C 222.833,537.333 225.167,533.667 227.5,530C 226.788,528.558 225.621,527.725 224,527.5C 220.685,529.242 217.851,531.575 215.5,534.5C 214.277,535.614 212.944,535.781 211.5,535C 207.836,529.676 203.836,524.676 199.5,520C 200.685,516.769 202.685,514.269 205.5,512.5 Z M 229.5,512.5 C 235.594,518.926 240.927,525.926 245.5,533.5C 238.639,527.642 233.306,520.642 229.5,512.5 Z M 577.5,512.5 C 580.439,512.918 582.772,514.418 584.5,517C 580.672,522.991 576.006,528.158 570.5,532.5C 567.42,531.211 564.586,529.545 562,527.5C 560.833,528.667 559.667,529.833 558.5,531C 561.129,533.79 563.129,536.957 564.5,540.5C 563.941,544.06 561.941,546.393 558.5,547.5C 557.386,546.277 557.219,544.944 558,543.5C 559.236,542.601 560.07,541.434 560.5,540C 559.283,537.073 557.45,534.573 555,532.5C 554.643,529.144 555.809,526.311 558.5,524C 559.333,523.833 560.167,523.667 561,523.5C 564.232,525.05 567.232,527.05 570,529.5C 573.167,525.667 576.333,521.833 579.5,518C 576.918,516.662 576.251,514.829 577.5,512.5 Z M 332.5,524.5 C 337.631,526.101 342.631,528.101 347.5,530.5C 348.719,535.692 347.552,540.359 344,544.5C 343.506,546.134 343.34,547.801 343.5,549.5C 336.297,547.563 329.63,544.563 323.5,540.5C 326.528,535.15 329.528,529.816 332.5,524.5 Z M 451.5,524.5 C 454.808,529.769 458.142,535.102 461.5,540.5C 455.37,544.563 448.703,547.563 441.5,549.5C 440.864,545.219 439.364,541.219 437,537.5C 436.186,535.098 436.353,532.765 437.5,530.5C 442.034,527.892 446.701,525.892 451.5,524.5 Z M 379.5,535.5 C 381.792,535.244 383.959,535.577 386,536.5C 387.536,542.749 387.87,549.083 387,555.5C 380.468,556.805 373.968,556.471 367.5,554.5C 367.167,553.667 366.833,552.833 366.5,552C 367.029,547.15 367.696,542.317 368.5,537.5C 369.325,541.122 369.825,544.789 370,548.5C 371.171,549.893 372.671,550.727 374.5,551C 378.167,551.667 381.833,551.667 385.5,551C 386.523,548.226 386.523,545.393 385.5,542.5C 382.833,542.167 380.167,541.833 377.5,541.5C 377.604,539.297 378.27,537.297 379.5,535.5 Z M 399.5,535.5 C 403.169,534.697 405.836,535.864 407.5,539C 405.207,541.437 402.374,542.937 399,543.5C 396.863,549.537 398.863,552.204 405,551.5C 407.925,551.477 410.759,550.977 413.5,550C 415.15,546.06 415.983,541.893 416,537.5C 417.161,542.414 417.994,547.414 418.5,552.5C 418.167,553.167 417.833,553.833 417.5,554.5C 411.023,556.379 404.523,556.712 398,555.5C 397.01,548.656 397.51,541.99 399.5,535.5 Z M 327.5,674.5 C 345.771,665.533 350.938,651.533 343,632.5C 335.771,614.798 322.604,607.965 303.5,612C 292.899,608.227 286.899,600.727 285.5,589.5C 287.752,584.364 291.752,581.697 297.5,581.5C 300.673,582.21 303.673,583.377 306.5,585C 318.862,593.85 330.862,603.183 342.5,613C 355.447,619.373 368.781,624.873 382.5,629.5C 383.72,635.8 384.22,642.133 384,648.5C 381.372,650.126 379.039,652.126 377,654.5C 377.581,660.174 375.414,664.341 370.5,667C 355.913,668.064 341.579,670.564 327.5,674.5 Z M 457.5,674.5 C 443.421,670.564 429.087,668.064 414.5,667C 409.586,664.341 407.419,660.174 408,654.5C 405.961,652.126 403.628,650.126 401,648.5C 400.848,642.164 401.181,635.83 402,629.5C 417.16,624.891 431.66,618.724 445.5,611C 455.955,601.61 466.955,592.944 478.5,585C 483.268,581.881 488.268,581.215 493.5,583C 496.394,584.392 498.394,586.559 499.5,589.5C 498.101,600.727 492.101,608.227 481.5,612C 475.833,612.333 470.167,612.667 464.5,613C 458.094,612.953 452.927,615.453 449,620.5C 439.891,631.386 436.891,643.72 440,657.5C 443.745,665.413 449.578,671.08 457.5,674.5 Z M 331.5,582.5 C 351.435,587.964 371.768,590.297 392.5,589.5C 413.232,590.297 433.565,587.964 453.5,582.5C 452.797,584.716 451.464,586.549 449.5,588C 434.895,598.225 419.395,607.058 403,614.5C 402.5,614 402,613.5 401.5,613C 405.823,607.013 411.157,602.013 417.5,598C 420.11,596.519 422.777,595.352 425.5,594.5C 425.5,593.5 425.5,592.5 425.5,591.5C 414.516,592.695 403.516,593.695 392.5,594.5C 381.484,593.695 370.484,592.695 359.5,591.5C 359.281,592.675 359.614,593.675 360.5,594.5C 367.866,598.182 374.533,602.848 380.5,608.5C 382.256,610.191 382.756,612.191 382,614.5C 366.106,607.14 350.939,598.64 336.5,589C 334.21,587.223 332.543,585.056 331.5,582.5 Z M 357.5,677.5 C 364.257,676.746 370.09,678.746 375,683.5C 375.23,686.895 374.397,690.061 372.5,693C 360.227,693.421 348.227,691.754 336.5,688C 334.156,687.163 332.156,685.829 330.5,684C 339.649,682.008 348.649,679.841 357.5,677.5 Z M 418.5,677.5 C 430.674,678.702 442.674,680.868 454.5,684C 449.375,687.491 443.708,689.824 437.5,691C 429.2,692.386 420.867,693.053 412.5,693C 410.427,690.121 409.593,686.954 410,683.5C 412.988,681.601 415.821,679.601 418.5,677.5 Z M 366.5,706.5 C 368.199,706.34 369.866,706.506 371.5,707C 373.598,709.854 375.931,712.521 378.5,715C 371.575,716.035 364.908,715.202 358.5,712.5C 356.997,711.41 356.664,710.243 357.5,709C 360.628,708.159 363.628,707.325 366.5,706.5 Z M 413.5,706.5 C 418.804,706.603 423.804,707.769 428.5,710C 427.421,712.043 425.754,713.376 423.5,714C 417.891,715.384 412.225,715.717 406.5,715C 409.2,712.412 411.533,709.579 413.5,706.5 Z"/></g>
<g><path style="opacity:0.827" fill="current" d="M 382.5,77.5 C 388.153,81.2918 389.986,86.6251 388,93.5C 384.186,96.277 381.519,95.277 380,90.5C 378.842,85.6935 379.676,81.3601 382.5,77.5 Z"/></g>
<g><path style="opacity:0.764" fill="current" d="M 400.5,92.5 C 399.986,90.6336 399.32,88.8003 398.5,87C 400.304,84.7017 402.637,84.035 405.5,85C 406.602,87.4009 406.769,89.9009 406,92.5C 404.224,93.5361 402.391,93.5361 400.5,92.5 Z"/></g>
<g><path style="opacity:0.856" fill="current" d="M 400.5,92.5 C 402.248,94.1599 402.748,96.1599 402,98.5C 399.044,103.231 394.878,105.064 389.5,104C 387.832,97.839 389.832,93.339 395.5,90.5C 397.514,90.4365 399.181,91.1032 400.5,92.5 Z"/></g>
<g><path style="opacity:0.925" fill="current" d="M 390.5,109.5 C 392.144,109.286 393.644,109.62 395,110.5C 399.106,121.224 405.94,129.724 415.5,136C 416.793,136.49 418.127,136.657 419.5,136.5C 419.719,137.675 419.386,138.675 418.5,139.5C 407.026,144.638 399.026,152.971 394.5,164.5C 393.022,164.762 391.689,164.429 390.5,163.5C 385.525,152.525 377.525,144.525 366.5,139.5C 365.614,138.675 365.281,137.675 365.5,136.5C 366.873,136.657 368.207,136.49 369.5,136C 379.243,129.35 386.243,120.517 390.5,109.5 Z"/></g>
<g><path style="opacity:0.837" fill="current" d="M 375.5,110.5 C 378.93,109.755 380.597,111.089 380.5,114.5C 380.36,119.458 378.193,123.125 374,125.5C 373.228,125.355 372.561,125.022 372,124.5C 370.608,119.093 371.774,114.426 375.5,110.5 Z"/></g>
<g><path style="opacity:0.826" fill="current" d="M 405.5,110.5 C 409.575,110.399 412.075,112.399 413,116.5C 413.777,119.429 413.61,122.263 412.5,125C 411.101,125.595 409.768,125.428 408.5,124.5C 404.723,120.372 403.723,115.705 405.5,110.5 Z"/></g>
<g><path style="opacity:0.811" fill="current" d="M 330.5,124.5 C 332.468,123.181 334.468,123.181 336.5,124.5C 338.089,132.981 334.756,138.647 326.5,141.5C 326.735,135.56 328.069,129.893 330.5,124.5 Z"/></g>
<g><path style="opacity:0.787" fill="current" d="M 455.5,126.5 C 457.139,131.36 458.139,136.36 458.5,141.5C 452.147,139.475 448.147,135.142 446.5,128.5C 448.245,122.648 451.245,121.981 455.5,126.5 Z"/></g>
<g><path style="opacity:0.898" fill="current" d="M 488.5,129.5 C 494.302,128.006 498.136,130.006 500,135.5C 500.179,138.553 500.679,141.553 501.5,144.5C 512.146,150.801 522.813,157.135 533.5,163.5C 531.893,161.363 529.727,159.03 527,156.5C 524.345,149.364 526.845,146.864 534.5,149C 539.389,150.443 544.055,152.443 548.5,155C 563.608,166.442 577.775,178.942 591,192.5C 590.164,197.843 590.497,203.176 592,208.5C 599.075,223.243 607.408,237.243 617,250.5C 619.643,254.228 620.477,258.228 619.5,262.5C 617.516,263.706 615.516,263.706 613.5,262.5C 603.606,242.719 590.773,225.052 575,209.5C 575.354,201.943 573.687,194.943 570,188.5C 563.627,182.458 556.96,176.792 550,171.5C 551.834,180.983 548,184.15 538.5,181C 523.14,169.986 507.14,159.986 490.5,151C 483.223,144.494 482.557,137.327 488.5,129.5 Z"/></g>
<g><path style="opacity:0.871" fill="current" d="M 255.5,181.5 C 257.017,181.511 258.184,182.177 259,183.5C 261.914,187.415 264.414,191.581 266.5,196C 264.365,199.737 261.365,202.57 257.5,204.5C 253.642,202.611 252.642,199.611 254.5,195.5C 254,195.167 253.5,194.833 253,194.5C 250.677,196.152 248.344,197.819 246,199.5C 245.333,200.5 245.333,201.5 246,202.5C 249.333,206.833 252.667,211.167 256,215.5C 256.977,218.259 256.144,220.259 253.5,221.5C 247.181,214.681 240.681,208.014 234,201.5C 233.104,198.975 233.604,196.808 235.5,195C 242.071,190.245 248.738,185.745 255.5,181.5 Z"/></g>
<g><path style="opacity:0.892" fill="#dae4ea" d="M 527.5,181.5 C 530.262,182.38 532.929,183.546 535.5,185C 540.167,188.333 544.833,191.667 549.5,195C 551.396,196.808 551.896,198.975 551,201.5C 543.979,207.272 537.646,213.605 532,220.5C 530.566,220.07 529.399,219.236 528.5,218C 532.665,212.674 536.332,207.007 539.5,201C 536.963,198.128 534.13,195.628 531,193.5C 532.377,206.271 528.711,207.604 520,197.5C 519.333,196.167 519.333,194.833 520,193.5C 522.725,189.615 525.225,185.615 527.5,181.5 Z"/></g>
<g><path style="opacity:0.857" fill="current" d="M 338.5,199.5 C 341.167,199.5 343.833,199.5 346.5,199.5C 347.026,202.808 345.693,204.974 342.5,206C 332.659,210.892 322.326,214.059 311.5,215.5C 311.104,212.956 311.771,210.789 313.5,209C 321.749,205.311 330.082,202.144 338.5,199.5 Z"/></g>
<g><path style="opacity:0.859" fill="current" d="M 438.5,199.5 C 450.881,200.461 462.381,204.127 473,210.5C 473.494,212.134 473.66,213.801 473.5,215.5C 461.126,213.987 449.626,209.987 439,203.5C 438.51,202.207 438.343,200.873 438.5,199.5 Z"/></g>
<g><path style="opacity:0.927" fill="current" d="M 612.5,227.5 C 617.542,227.015 621.376,229.015 624,233.5C 639.197,257.69 651.197,283.356 660,310.5C 662.956,320.99 664.956,331.657 666,342.5C 666.425,356.836 666.925,371.169 667.5,385.5C 667.23,394.123 666.73,402.79 666,411.5C 664.957,416.223 662.124,418.056 657.5,417C 656.107,415.829 655.273,414.329 655,412.5C 653.914,387.846 653.247,363.18 653,338.5C 650.479,308.925 640.479,282.259 623,258.5C 618.062,249.958 614.228,240.958 611.5,231.5C 611.846,230.151 612.179,228.817 612.5,227.5 Z"/></g>
<g><path style="opacity:0.812" fill="current" d="M 295.5,245.5 C 297.5,245.5 299.5,245.5 301.5,245.5C 301.559,254.007 297.226,257.674 288.5,256.5C 288.343,255.127 288.51,253.793 289,252.5C 291.372,250.297 293.539,247.963 295.5,245.5 Z"/></g>
<g><path style="opacity:0.874" fill="current" d="M 483.5,245.5 C 490.617,245.955 494.95,249.621 496.5,256.5C 487.846,257.698 483.513,254.032 483.5,245.5 Z"/></g>
<g><path style="opacity:0.845" fill="current" d="M 411.5,254.5 C 417.105,253.908 422.439,254.741 427.5,257C 431.093,262.195 429.926,265.029 424,265.5C 417.181,264.848 413.015,261.181 411.5,254.5 Z"/></g>
<g><path style="opacity:0.823" fill="current" d="M 281.5,256.5 C 288.425,255.572 290.259,258.239 287,264.5C 283.097,268.643 279.597,268.476 276.5,264C 277.546,261.114 279.213,258.614 281.5,256.5 Z"/></g>
<g><path style="opacity:0.83" fill="current" d="M 497.5,256.5 C 501.95,256.142 505.45,257.808 508,261.5C 508.798,263.259 508.631,264.926 507.5,266.5C 498.857,268.524 495.524,265.191 497.5,256.5 Z"/></g>
<g><path style="opacity:0.83" fill="#dae3ea" d="M 431.5,263.5 C 434.909,263.249 438.242,263.583 441.5,264.5C 443.339,266.527 443.839,268.86 443,271.5C 439.632,272.83 436.465,272.33 433.5,270C 431.984,268.103 431.317,265.936 431.5,263.5 Z"/></g>
<g><path style="opacity:0.897" fill="#dae4ea" d="M 446.5,265.5 C 453.536,264.603 455.203,267.103 451.5,273C 449.19,273.497 446.857,273.663 444.5,273.5C 444.107,270.487 444.774,267.82 446.5,265.5 Z"/></g>
<g><path style="opacity:0.779" fill="current" d="M 272.5,267.5 C 276.146,268.462 277.313,270.795 276,274.5C 273.409,278.048 269.909,279.382 265.5,278.5C 265.613,273.244 267.946,269.578 272.5,267.5 Z"/></g>
<g><path style="opacity:0.754" fill="current" d="M 509.5,267.5 C 515.78,268.345 519.113,272.012 519.5,278.5C 510.439,279.78 507.106,276.113 509.5,267.5 Z"/></g>
<g><path style="opacity:0.912" fill="#dae4ea" d="M 625.5,272.5 C 627.467,272.261 629.301,272.594 631,273.5C 639.912,292.575 646.245,312.575 650,333.5C 650.636,338.94 650.136,344.273 648.5,349.5C 645.167,349.973 643,348.64 642,345.5C 637.881,326.476 632.547,307.81 626,289.5C 624.601,283.793 624.434,278.127 625.5,272.5 Z"/></g>
<g><path style="opacity:0.772" fill="current" d="M 260.5,280.5 C 262.167,280.5 263.833,280.5 265.5,280.5C 265.67,285.831 263.503,289.831 259,292.5C 257.115,292.138 256.281,290.971 256.5,289C 256.79,285.61 258.123,282.777 260.5,280.5 Z"/></g>
<g><path style="opacity:0.874" fill="current" d="M 452.5,280.5 C 460.775,279.605 467.608,282.271 473,288.5C 474.628,293.033 473.295,296.033 469,297.5C 461.224,296.449 455.558,292.449 452,285.5C 451.36,283.735 451.527,282.068 452.5,280.5 Z"/></g>
<g><path style="opacity:0.767" fill="current" d="M 519.5,280.5 C 525.161,280.324 528.161,283.157 528.5,289C 528.166,292.392 526.5,293.226 523.5,291.5C 520.591,288.441 519.257,284.774 519.5,280.5 Z"/></g>
<g><path style="opacity:0.855" fill="current" d="M 475.5,292.5 C 483.846,293.005 487.679,297.338 487,305.5C 484.847,307.444 482.347,307.944 479.5,307C 477.342,305.543 475.509,303.71 474,301.5C 473.37,299.097 474.203,297.263 476.5,296C 475.663,294.989 475.33,293.822 475.5,292.5 Z"/></g>
<g><path style="opacity:0.851" fill="current" d="M 303.5,303.5 C 309.674,302.173 311.841,304.506 310,310.5C 307.36,317.488 302.694,319.822 296,317.5C 294.595,310.639 297.095,305.973 303.5,303.5 Z"/></g>
<g><path style="opacity:0.851" fill="current" d="M 486.5,319.5 C 490.605,319.234 494.605,319.734 498.5,321C 500.444,323.153 500.944,325.653 500,328.5C 494.569,331.671 489.902,330.671 486,325.5C 485.322,323.402 485.489,321.402 486.5,319.5 Z"/></g>
<g><path style="opacity:0.845" fill="current" d="M 276.5,329.5 C 286.447,330.456 289.447,335.623 285.5,345C 283.231,345.758 281.064,345.591 279,344.5C 276.131,339.761 275.298,334.761 276.5,329.5 Z"/></g>
<g><path style="opacity:0.787" fill="current" d="M 484.5,336.5 C 491.446,336.28 494.946,339.613 495,346.5C 489.849,347.761 486.183,345.761 484,340.5C 483.421,339.072 483.588,337.738 484.5,336.5 Z"/></g>
<g><path style="opacity:0.888" fill="current" d="M 274.5,351.5 C 279.385,350.856 282.552,352.856 284,357.5C 285.01,362.558 284.51,367.391 282.5,372C 280.5,372.667 278.5,372.667 276.5,372C 272.136,365.414 271.47,358.58 274.5,351.5 Z"/></g>
<g><path style="opacity:0.799" fill="current" d="M 502.5,366.5 C 505.325,366.081 507.491,367.081 509,369.5C 509.784,372.76 509.617,375.927 508.5,379C 507.167,379.667 505.833,379.667 504.5,379C 503,376.833 501.5,374.667 500,372.5C 499.034,369.66 499.867,367.66 502.5,366.5 Z"/></g>
<g><path style="opacity:0.815" fill="current" d="M 383.5,372.5 C 380.274,375.478 376.608,376.145 372.5,374.5C 371.637,370.838 372.97,368.672 376.5,368C 378.833,367.333 381.167,367.333 383.5,368C 384.728,369.49 384.728,370.99 383.5,372.5 Z"/></g>
<g><path style="opacity:0.824" fill="current" d="M 393.5,371.5 C 395.09,374.455 394.757,377.122 392.5,379.5C 386.45,380.675 383.45,378.342 383.5,372.5C 386.764,371.676 390.098,371.342 393.5,371.5 Z"/></g>
<g><path style="opacity:0.803" fill="current" d="M 511.5,372.5 C 517.546,372.573 519.713,375.573 518,381.5C 516.174,385.037 513.84,385.371 511,382.5C 510.341,379.112 510.508,375.779 511.5,372.5 Z"/></g>
<g><path style="opacity:0.863" fill="current" d="M 372.5,374.5 C 373.537,376.738 373.703,379.071 373,381.5C 369.934,387.9 365.434,393.067 359.5,397C 357.5,397.667 355.5,397.667 353.5,397C 352.088,393.297 352.588,389.797 355,386.5C 358.167,383.333 361.333,380.167 364.5,377C 366.909,375.293 369.575,374.46 372.5,374.5 Z"/></g>
<g><path style="opacity:0.867" fill="current" d="M 259.5,377.5 C 264.448,377.267 267.615,379.601 269,384.5C 270.348,387.711 271.182,391.044 271.5,394.5C 271.487,399.999 268.82,401.832 263.5,400C 261.508,399.426 260.008,398.259 259,396.5C 257.181,390.095 257.348,383.761 259.5,377.5 Z"/></g>
<g><path style="opacity:0.748" fill="current" d="M 270.5,379.5 C 276.675,378.677 279.675,381.344 279.5,387.5C 273.373,388.373 270.373,385.707 270.5,379.5 Z"/></g>
<g><path style="opacity:0.918" fill="current" d="M 646.5,383.5 C 648.39,383.297 649.89,383.963 651,385.5C 651.935,387.909 652.435,390.409 652.5,393C 651.918,405.229 650.751,417.396 649,429.5C 648.251,435.288 645.251,437.288 640,435.5C 638.902,419.37 639.902,403.37 643,387.5C 644.376,386.295 645.542,384.962 646.5,383.5 Z"/></g>
<g><path style="opacity:0.912" fill="current" d="M 506.5,419.5 C 505.833,419.5 505.5,419.833 505.5,420.5C 503.856,420.714 502.356,420.38 501,419.5C 498.602,408.124 498.436,396.791 500.5,385.5C 506.387,385.221 510.22,387.888 512,393.5C 513.963,403.062 512.13,411.729 506.5,419.5 Z"/></g>
<g><path style="opacity:0.903" fill="current" d="M 134.5,386.5 C 136.124,386.36 137.29,387.027 138,388.5C 141.532,405.346 143.198,422.346 143,439.5C 139.617,440.519 137.283,439.185 136,435.5C 130.643,419.278 130.143,402.945 134.5,386.5 Z"/></g>
<g><path style="opacity:0.843" fill="current" d="M 275.5,394.5 C 277.792,394.244 279.959,394.577 282,395.5C 282.956,399.572 282.456,403.405 280.5,407C 277.472,408.14 275.305,407.306 274,404.5C 273.31,400.974 273.81,397.64 275.5,394.5 Z"/></g>
<g><path style="opacity:0.703" fill="current" d="M 270.5,413.5 C 276.651,414.103 277.984,416.936 274.5,422C 272.888,422.72 271.388,422.554 270,421.5C 268.271,418.537 268.438,415.87 270.5,413.5 Z"/></g>
<g><path style="opacity:0.936" fill="current" d="M 505.5,420.5 C 506.167,420.5 506.5,420.167 506.5,419.5C 510.668,418.088 513.335,419.588 514.5,424C 512.915,432.131 508.248,435.631 500.5,434.5C 499.848,429.113 501.514,424.446 505.5,420.5 Z"/></g>
<g><path style="opacity:0.874" fill="current" d="M 284.5,427.5 C 286.199,427.34 287.866,427.506 289.5,428C 293.549,436.473 294.215,445.139 291.5,454C 288.173,454.97 286.007,453.803 285,450.5C 284.039,444.165 283.206,437.831 282.5,431.5C 283.18,430.14 283.847,428.807 284.5,427.5 Z"/></g>
<g><path style="opacity:0.778" fill="current" d="M 121.5,429.5 C 129.425,429.438 132.758,433.438 131.5,441.5C 128.675,441.919 126.509,440.919 125,438.5C 123.047,435.745 121.88,432.745 121.5,429.5 Z"/></g>
<g><path style="opacity:0.896" fill="#d9e3ea" d="M 652.5,431.5 C 654.792,431.244 656.959,431.577 659,432.5C 661.535,440.99 660.035,448.657 654.5,455.5C 648.678,457.435 646.345,455.268 647.5,449C 647.695,442.715 649.362,436.882 652.5,431.5 Z"/></g>
<g><path style="opacity:0.918" fill="current" d="M 486.5,433.5 C 488.144,433.286 489.644,433.62 491,434.5C 493.509,439.708 495.009,445.208 495.5,451C 496.333,458.169 493.333,461.169 486.5,460C 485.809,458.933 485.309,457.766 485,456.5C 485.14,449.964 484.974,443.464 484.5,437C 484.978,435.697 485.645,434.531 486.5,433.5 Z"/></g>
<g><path style="opacity:0.822" fill="current" d="M 503.5,436.5 C 505.5,436.5 507.5,436.5 509.5,436.5C 509.778,442.394 507.112,444.894 501.5,444C 500.057,440.939 500.724,438.439 503.5,436.5 Z"/></g>
<g><path style="opacity:0.859" fill="current" d="M 485.5,461.5 C 487.167,461.5 488.833,461.5 490.5,461.5C 493.932,468.166 492.932,474 487.5,479C 485.19,479.497 482.857,479.663 480.5,479.5C 479.322,472.597 480.989,466.597 485.5,461.5 Z"/></g>
<g><path style="opacity:0.847" fill="current" d="M 113.5,475.5 C 120.199,475.229 122.199,478.229 119.5,484.5C 111.414,485.853 109.414,482.853 113.5,475.5 Z"/></g>
<g><path style="opacity:0.765" fill="current" d="M 254.5,475.5 C 261.319,475.404 264.986,478.737 265.5,485.5C 263.857,485.48 262.524,486.147 261.5,487.5C 256.682,485.002 254.348,481.002 254.5,475.5 Z"/></g>
<g><path style="opacity:0.776" fill="current" d="M 521.5,487.5 C 518.844,479.775 521.844,475.775 530.5,475.5C 530.751,479.331 529.584,482.664 527,485.5C 525.556,487.155 523.722,487.822 521.5,487.5 Z"/></g>
<g><path style="opacity:0.913" fill="current" d="M 666.5,475.5 C 671.039,474.539 673.372,476.373 673.5,481C 673.561,482.711 672.894,484.044 671.5,485C 664.923,486.591 662.756,484.091 665,477.5C 665.717,476.956 666.217,476.289 666.5,475.5 Z"/></g>
<g><path style="opacity:0.805" fill="current" d="M 263.5,487.5 C 271.866,487.369 276.033,491.369 276,499.5C 273.936,500.591 271.769,500.758 269.5,500C 265.476,496.787 263.476,492.62 263.5,487.5 Z"/></g>
<g><path style="opacity:0.811" fill="current" d="M 521.5,487.5 C 521.66,489.199 521.494,490.866 521,492.5C 519.333,494.833 517.667,497.167 516,499.5C 508.718,501.88 506.718,499.547 510,492.5C 513.065,489.051 516.898,487.384 521.5,487.5 Z"/></g>
<g><path style="opacity:0.772" fill="current" d="M 114.5,488.5 C 119.678,489.849 121.512,493.182 120,498.5C 118,501.167 116,501.167 114,498.5C 113.341,495.112 113.508,491.779 114.5,488.5 Z"/></g>
<g><path style="opacity:0.872" fill="#dae4ea" d="M 667.5,488.5 C 668.5,488.5 669.5,488.5 670.5,488.5C 671.376,491.799 671.543,495.132 671,498.5C 667.261,500.475 665.094,499.475 664.5,495.5C 664.695,492.782 665.695,490.449 667.5,488.5 Z"/></g>
<g><path style="opacity:0.875" fill="current" d="M 123.5,493.5 C 125.757,493.962 127.757,494.962 129.5,496.5C 130.838,503.194 132.338,509.861 134,516.5C 137.035,519.87 140.368,522.87 144,525.5C 145.252,528.014 145.752,530.68 145.5,533.5C 130.702,530.85 123.202,521.85 123,506.5C 122.294,502.113 122.46,497.78 123.5,493.5 Z"/></g>
<g><path style="opacity:0.923" fill="current" d="M 658.5,493.5 C 659.675,493.281 660.675,493.614 661.5,494.5C 662.602,503.3 661.769,511.966 659,520.5C 654.782,528.411 648.282,532.578 639.5,533C 638.251,530.79 638.418,528.624 640,526.5C 643.145,523.266 646.478,520.266 650,517.5C 652.475,512.128 653.809,506.462 654,500.5C 654.545,497.473 656.045,495.14 658.5,493.5 Z"/></g>
<g><path style="opacity:0.805" fill="current" d="M 276.5,500.5 C 283.164,500 286.331,503 286,509.5C 285.439,510.022 284.772,510.355 284,510.5C 281.61,509.722 279.443,508.555 277.5,507C 276.577,504.959 276.244,502.792 276.5,500.5 Z"/></g>
<g><path style="opacity:0.793" fill="current" d="M 502.5,500.5 C 504.5,500.5 506.5,500.5 508.5,500.5C 508.662,502.527 508.495,504.527 508,506.5C 505.914,508.249 503.581,509.583 501,510.5C 499.053,509.956 498.22,508.623 498.5,506.5C 498.667,505.5 498.833,504.5 499,503.5C 500.518,502.837 501.685,501.837 502.5,500.5 Z"/></g>
<g><path style="opacity:0.832" fill="current" d="M 111.5,502.5 C 116.106,503.637 118.94,506.637 120,511.5C 120.495,513.473 120.662,515.473 120.5,517.5C 113.992,517.991 110.659,514.991 110.5,508.5C 110.672,506.452 111.005,504.452 111.5,502.5 Z"/></g>
<g><path style="opacity:0.888" fill="current" d="M 670.5,502.5 C 672.124,502.36 673.29,503.027 674,504.5C 676.149,512.901 672.982,517.235 664.5,517.5C 664.017,511.472 666.017,506.472 670.5,502.5 Z"/></g>
<g><path style="opacity:0.82" fill="current" d="M 288.5,510.5 C 294.552,510.38 298.552,513.213 300.5,519C 300.22,520.395 299.553,521.562 298.5,522.5C 291.789,521.136 288.456,517.136 288.5,510.5 Z"/></g>
<g><path style="opacity:0.791" fill="current" d="M 490.5,510.5 C 492.5,510.5 494.5,510.5 496.5,510.5C 496.228,518.106 492.228,522.106 484.5,522.5C 484.338,520.473 484.505,518.473 485,516.5C 487.04,514.63 488.873,512.63 490.5,510.5 Z"/></g>
<g><path style="opacity:0.948" fill="current" d="M 614.5,516.5 C 617.579,516.26 620.579,516.593 623.5,517.5C 624.835,521.87 624.002,525.87 621,529.5C 612.843,539.814 605.176,550.48 598,561.5C 594.03,566.475 589.197,570.309 583.5,573C 581.432,573.687 579.432,573.52 577.5,572.5C 576.348,569.894 576.182,567.227 577,564.5C 583.972,556.859 590.972,549.193 598,541.5C 602.068,535.087 605.735,528.421 609,521.5C 610.812,519.7 612.645,518.033 614.5,516.5 Z"/></g>
<g><path style="opacity:0.911" fill="current" d="M 167.5,519.5 C 170.939,519.589 173.772,520.922 176,523.5C 179.829,531.163 184.163,538.496 189,545.5C 194.667,551.167 200.333,556.833 206,562.5C 209.8,566.925 209.3,570.592 204.5,573.5C 201.221,572.527 198.221,571.027 195.5,569C 183.465,556.302 172.965,542.469 164,527.5C 163.796,524.24 164.963,521.573 167.5,519.5 Z"/></g>
<g><path style="opacity:0.94" fill="current" d="M 72.5,523.5 C 79.175,523.334 85.8417,523.5 92.5,524C 93.9663,524.635 95.2997,525.469 96.5,526.5C 108.358,522.958 119.691,524.458 130.5,531C 137.508,534.835 144.174,539.169 150.5,544C 165.106,556.603 179.106,569.937 192.5,584C 196.5,586 200.5,588 204.5,590C 209.407,590.368 214.24,589.868 219,588.5C 222.817,588.656 226.317,589.822 229.5,592C 237.601,597.103 244.768,603.27 251,610.5C 251.667,611.833 251.667,613.167 251,614.5C 238.647,623.711 224.814,626.878 209.5,624C 199.67,621.5 191.504,616.333 185,608.5C 172.667,594.167 160.333,579.833 148,565.5C 137.955,556.565 127.455,548.232 116.5,540.5C 115.756,539.009 115.09,537.509 114.5,536C 111.436,537.824 107.936,538.991 104,539.5C 96.6939,537.183 89.1939,535.683 81.5,535C 79.8333,534.167 78.1667,533.333 76.5,532.5C 70.9128,536.769 65.7462,536.436 61,531.5C 60.2195,530.056 60.3861,528.723 61.5,527.5C 65.1392,525.735 68.8059,524.401 72.5,523.5 Z"/></g>
<g><path style="opacity:0.946" fill="#dae4ea" d="M 692.5,523.5 C 701.984,522.94 711.317,523.773 720.5,526C 725.606,528.706 725.606,531.706 720.5,535C 716.098,535.968 712.098,535.135 708.5,532.5C 699.455,535.321 690.288,537.654 681,539.5C 677.2,539.222 673.867,537.889 671,535.5C 670.02,537.059 669.187,538.726 668.5,540.5C 658.69,547.809 649.024,555.309 639.5,563C 625.882,578.406 612.382,593.906 599,609.5C 586.967,622.51 572.133,627.344 554.5,624C 546.912,622.364 540.079,619.198 534,614.5C 533.365,612.365 533.699,610.365 535,608.5C 542.87,601.151 551.37,594.651 560.5,589C 567.241,588.703 573.907,589.037 580.5,590C 592.233,584.609 601.9,576.609 609.5,566C 620.539,555.959 631.873,546.292 643.5,537C 649.644,533.427 655.977,530.093 662.5,527C 671.242,524.073 679.909,523.907 688.5,526.5C 689.901,525.479 691.235,524.479 692.5,523.5 Z"/></g>
<g><path style="opacity:0.872" fill="current" d="M 216.5,565.5 C 225.886,565.071 229.053,569.404 226,578.5C 225.626,579.416 225.126,580.25 224.5,581C 214.816,582.979 210.649,579.146 212,569.5C 213.397,567.93 214.897,566.596 216.5,565.5 Z"/></g>
<g><path style="opacity:0.938" fill="#dae4ea" d="M 562.5,565.5 C 572.033,565.241 575.199,569.574 572,578.5C 560.591,584.772 556.258,581.439 559,568.5C 560.145,567.364 561.312,566.364 562.5,565.5 Z"/></g>
<g><path style="opacity:0.804" fill="current" d="M 234.5,579.5 C 238.195,581.678 241.528,584.511 244.5,588C 248.753,590.71 252.92,593.543 257,596.5C 257.497,599.146 257.664,601.813 257.5,604.5C 249.157,600.901 241.657,595.901 235,589.5C 233.265,586.21 233.099,582.877 234.5,579.5 Z"/></g>
<g><path style="opacity:0.85" fill="current" d="M 547.5,579.5 C 550.465,579.73 551.798,581.397 551.5,584.5C 551.378,586.791 550.545,588.791 549,590.5C 542.841,595.911 536.174,600.578 529,604.5C 526.104,602.227 525.771,599.56 528,596.5C 532.08,593.543 536.247,590.71 540.5,588C 543.447,585.564 545.78,582.731 547.5,579.5 Z"/></g>
<g><path style="opacity:0.82" fill="#dae4ea" d="M 271.5,605.5 C 272.5,605.5 273.5,605.5 274.5,605.5C 275.519,611.144 273.186,614.144 267.5,614.5C 266.981,610.547 268.314,607.547 271.5,605.5 Z"/></g>
<g><path style="opacity:0.766" fill="#dae3eb" d="M 510.5,605.5 C 514.107,605.379 516.273,607.045 517,610.5C 519.527,605.616 522.527,605.283 526,609.5C 526.497,611.81 526.663,614.143 526.5,616.5C 524.473,616.662 522.473,616.495 520.5,616C 519.151,615.228 518.318,614.061 518,612.5C 515.581,614.842 513.247,614.509 511,611.5C 510.505,609.527 510.338,607.527 510.5,605.5 Z"/></g>
<g><path style="opacity:0.853" fill="current" d="M 261.5,606.5 C 263.144,606.286 264.644,606.62 266,607.5C 268.037,614.472 265.537,617.472 258.5,616.5C 257.858,612.525 258.858,609.192 261.5,606.5 Z"/></g>
<g><path style="opacity:0.898" fill="current" d="M 266.5,618.5 C 271.449,617.959 276.116,618.792 280.5,621C 281.602,623.401 281.769,625.901 281,628.5C 276.298,631.14 271.798,630.64 267.5,627C 265.397,624.335 265.064,621.501 266.5,618.5 Z"/></g>
<g><path style="opacity:0.871" fill="current" d="M 508.5,618.5 C 511.85,618.335 515.183,618.502 518.5,619C 520.008,624.868 517.675,628.535 511.5,630C 503.927,631.433 501.427,628.6 504,621.5C 505.652,620.601 507.152,619.601 508.5,618.5 Z"/></g>
<g><path style="opacity:0.884" fill="current" d="M 254.5,619.5 C 261.065,618.422 263.232,621.089 261,627.5C 260.626,628.416 260.126,629.25 259.5,630C 252.909,632.244 250.409,630.077 252,623.5C 252.662,622.016 253.496,620.683 254.5,619.5 Z"/></g>
<g><path style="opacity:0.926" fill="current" d="M 524.5,619.5 C 531.896,619 534.563,622.334 532.5,629.5C 524.278,631.138 521.611,627.805 524.5,619.5 Z"/></g>
</svg>
